<svg width="316" height="232" viewBox="0 0 316 232" fill="none" xmlns="http://www.w3.org/2000/svg">
<rect width="316" height="232" fill="white"/>
<path d="M123.362 161.36C121.634 161.36 120.162 160.984 118.946 160.232C117.73 159.472 116.798 158.416 116.15 157.064C115.51 155.712 115.19 154.144 115.19 152.36C115.19 150.576 115.51 149.008 116.15 147.656C116.798 146.304 117.73 145.252 118.946 144.5C120.162 143.74 121.634 143.36 123.362 143.36C125.082 143.36 126.55 143.74 127.766 144.5C128.99 145.252 129.922 146.304 130.562 147.656C131.202 149.008 131.522 150.576 131.522 152.36C131.522 154.144 131.202 155.712 130.562 157.064C129.922 158.416 128.99 159.472 127.766 160.232C126.55 160.984 125.082 161.36 123.362 161.36ZM123.362 158.972C124.586 158.988 125.602 158.72 126.41 158.168C127.226 157.608 127.838 156.832 128.246 155.84C128.654 154.84 128.858 153.68 128.858 152.36C128.858 151.04 128.654 149.888 128.246 148.904C127.838 147.912 127.226 147.14 126.41 146.588C125.602 146.036 124.586 145.756 123.362 145.748C122.138 145.732 121.118 146 120.302 146.552C119.494 147.104 118.886 147.88 118.478 148.88C118.07 149.88 117.862 151.04 117.854 152.36C117.846 153.68 118.046 154.836 118.454 155.828C118.862 156.812 119.474 157.58 120.29 158.132C121.114 158.684 122.138 158.964 123.362 158.972ZM133.436 145.916V143.48H135.944V145.916H133.436ZM133.436 161V148.04H135.944V161H133.436ZM139.068 161V143.36H141.576V161H139.068ZM148.544 161V143.72H158.78V146.228H151.052V151.1H157.34V153.62H151.052V161H148.544ZM160.462 145.916V143.48H162.97V145.916H160.462ZM160.462 161V148.04H162.97V161H160.462ZM166.094 161V143.36H168.602V161H166.094ZM178.901 161C178.085 161.16 177.285 161.228 176.501 161.204C175.717 161.18 175.017 161.028 174.401 160.748C173.785 160.468 173.321 160.028 173.009 159.428C172.729 158.892 172.577 158.348 172.553 157.796C172.537 157.236 172.529 156.604 172.529 155.9V144.44H175.049V155.78C175.049 156.3 175.053 156.752 175.061 157.136C175.077 157.52 175.161 157.844 175.313 158.108C175.601 158.604 176.057 158.888 176.681 158.96C177.313 159.024 178.053 158.996 178.901 158.876V161ZM170.045 150.056V148.04H178.901V150.056H170.045ZM186.076 161.36C184.788 161.36 183.656 161.08 182.68 160.52C181.712 159.952 180.956 159.164 180.412 158.156C179.876 157.14 179.608 155.964 179.608 154.628C179.608 153.212 179.872 151.984 180.4 150.944C180.936 149.904 181.68 149.1 182.632 148.532C183.584 147.964 184.692 147.68 185.956 147.68C187.276 147.68 188.4 147.988 189.328 148.604C190.256 149.212 190.948 150.08 191.404 151.208C191.868 152.336 192.052 153.676 191.956 155.228H189.448V154.316C189.432 152.812 189.144 151.7 188.584 150.98C188.032 150.26 187.188 149.9 186.052 149.9C184.796 149.9 183.852 150.296 183.22 151.088C182.588 151.88 182.272 153.024 182.272 154.52C182.272 155.944 182.588 157.048 183.22 157.832C183.852 158.608 184.764 158.996 185.956 158.996C186.74 158.996 187.416 158.82 187.984 158.468C188.56 158.108 189.008 157.596 189.328 156.932L191.788 157.712C191.284 158.872 190.52 159.772 189.496 160.412C188.472 161.044 187.332 161.36 186.076 161.36ZM181.456 155.228V153.272H190.708V155.228H181.456ZM193.928 161V148.04H196.16V151.184L195.848 150.776C196.008 150.36 196.216 149.98 196.472 149.636C196.728 149.284 197.024 148.996 197.36 148.772C197.688 148.532 198.052 148.348 198.452 148.22C198.86 148.084 199.276 148.004 199.7 147.98C200.124 147.948 200.532 147.968 200.924 148.04V150.392C200.5 150.28 200.028 150.248 199.508 150.296C198.996 150.344 198.524 150.508 198.092 150.788C197.684 151.052 197.36 151.372 197.12 151.748C196.888 152.124 196.72 152.544 196.616 153.008C196.512 153.464 196.46 153.948 196.46 154.46V161H193.928Z" fill="#1E1B1B"/>
<path d="M174.172 92.1934C174.172 91.8501 174.041 91.5197 173.806 91.2697L163.024 79.8146C162.77 79.5441 162.415 79.3906 162.043 79.3906H148.566C148.182 79.3906 147.815 79.5552 147.559 79.8429L142.169 85.9074C141.949 86.1541 141.828 86.4726 141.828 86.8027V110.566C141.828 111.601 142.219 112.546 142.86 113.262C142.219 113.978 141.828 114.923 141.828 115.957C141.828 118.186 143.642 120 145.871 120H170.129C172.358 120 174.172 118.186 174.172 115.957C174.172 114.923 173.781 113.978 173.14 113.262C173.781 112.546 174.172 111.601 174.172 110.566V92.1934ZM158 111.914C155.771 111.914 153.957 110.1 153.957 107.871C153.957 107.316 154.116 106.304 155.487 103.941C156.179 102.747 156.862 101.756 156.891 101.714C157.143 101.35 157.557 101.132 158 101.132C158.443 101.132 158.857 101.35 159.109 101.714C159.138 101.756 159.821 102.747 160.513 103.941C161.884 106.304 162.043 107.316 162.043 107.871C162.043 110.1 160.229 111.914 158 111.914ZM167.935 96.0143C167.413 96.5052 166.75 96.7474 166.087 96.7474C165.37 96.7474 164.655 96.4631 164.125 95.8998L157.935 89.3234C156.914 88.239 156.967 86.5333 158.05 85.5134C159.135 84.4934 160.842 84.5448 161.86 85.6278L168.049 92.2042C169.07 93.2887 169.018 94.9943 167.935 96.0143Z" fill="#1E1B1B"/>
<path d="M156.652 107.872C156.652 108.614 157.257 109.219 158 109.219C158.743 109.219 159.347 108.615 159.348 107.872C159.336 107.459 158.776 106.285 158 104.978C157.224 106.286 156.663 107.46 156.652 107.872Z" fill="#1E1B1B"/>
<path d="M156.652 74H148.566C147.822 74 147.219 74.6034 147.219 75.3477V76.6953H158V75.3477C158 74.6034 157.397 74 156.652 74Z" fill="#1E1B1B"/>
</svg>
