<svg width="316" height="232" viewBox="0 0 316 232" fill="none" xmlns="http://www.w3.org/2000/svg">
<rect width="316" height="232" fill="#FF6433"/>
<path d="M90.7258 161L85.7098 143.72H88.3378L91.9738 156.788L95.6098 143.732L98.2498 143.72L101.886 156.788L105.522 143.72H108.162L103.134 161H100.638L96.9298 148.076L93.2218 161H90.7258ZM118.551 161V154.628C118.551 154.124 118.507 153.608 118.419 153.08C118.339 152.544 118.179 152.048 117.939 151.592C117.707 151.136 117.375 150.768 116.943 150.488C116.519 150.208 115.963 150.068 115.275 150.068C114.827 150.068 114.403 150.144 114.003 150.296C113.603 150.44 113.251 150.676 112.947 151.004C112.651 151.332 112.415 151.764 112.239 152.3C112.071 152.836 111.987 153.488 111.987 154.256L110.427 153.668C110.427 152.492 110.647 151.456 111.087 150.56C111.527 149.656 112.159 148.952 112.983 148.448C113.807 147.944 114.803 147.692 115.971 147.692C116.867 147.692 117.619 147.836 118.227 148.124C118.835 148.412 119.327 148.792 119.703 149.264C120.087 149.728 120.379 150.236 120.579 150.788C120.779 151.34 120.915 151.88 120.987 152.408C121.059 152.936 121.095 153.4 121.095 153.8V161H118.551ZM109.443 161V143.72H111.687V153.044H111.987V161H109.443ZM129.249 161.36C127.961 161.36 126.829 161.08 125.853 160.52C124.885 159.952 124.129 159.164 123.585 158.156C123.049 157.14 122.781 155.964 122.781 154.628C122.781 153.212 123.045 151.984 123.573 150.944C124.109 149.904 124.853 149.1 125.805 148.532C126.757 147.964 127.865 147.68 129.129 147.68C130.449 147.68 131.573 147.988 132.501 148.604C133.429 149.212 134.121 150.08 134.577 151.208C135.041 152.336 135.225 153.676 135.129 155.228H132.621V154.316C132.605 152.812 132.317 151.7 131.757 150.98C131.205 150.26 130.361 149.9 129.225 149.9C127.969 149.9 127.025 150.296 126.393 151.088C125.761 151.88 125.445 153.024 125.445 154.52C125.445 155.944 125.761 157.048 126.393 157.832C127.025 158.608 127.937 158.996 129.129 158.996C129.913 158.996 130.589 158.82 131.157 158.468C131.733 158.108 132.181 157.596 132.501 156.932L134.961 157.712C134.457 158.872 133.693 159.772 132.669 160.412C131.645 161.044 130.505 161.36 129.249 161.36ZM124.629 155.228V153.272H133.881V155.228H124.629ZM142.849 161.36C141.561 161.36 140.429 161.08 139.453 160.52C138.485 159.952 137.729 159.164 137.185 158.156C136.649 157.14 136.381 155.964 136.381 154.628C136.381 153.212 136.645 151.984 137.173 150.944C137.709 149.904 138.453 149.1 139.405 148.532C140.357 147.964 141.465 147.68 142.729 147.68C144.049 147.68 145.173 147.988 146.101 148.604C147.029 149.212 147.721 150.08 148.177 151.208C148.641 152.336 148.825 153.676 148.729 155.228H146.221V154.316C146.205 152.812 145.917 151.7 145.357 150.98C144.805 150.26 143.961 149.9 142.825 149.9C141.569 149.9 140.625 150.296 139.993 151.088C139.361 151.88 139.045 153.024 139.045 154.52C139.045 155.944 139.361 157.048 139.993 157.832C140.625 158.608 141.537 158.996 142.729 158.996C143.513 158.996 144.189 158.82 144.757 158.468C145.333 158.108 145.781 157.596 146.101 156.932L148.561 157.712C148.057 158.872 147.293 159.772 146.269 160.412C145.245 161.044 144.105 161.36 142.849 161.36ZM138.229 155.228V153.272H147.481V155.228H138.229ZM150.941 161V143.36H153.449V161H150.941ZM160.418 161V143.72H167.402C167.57 143.72 167.778 143.728 168.026 143.744C168.274 143.752 168.51 143.776 168.734 143.816C169.694 143.968 170.494 144.296 171.134 144.8C171.782 145.304 172.266 145.94 172.586 146.708C172.906 147.476 173.066 148.324 173.066 149.252C173.066 150.628 172.714 151.816 172.01 152.816C171.306 153.808 170.25 154.428 168.842 154.676L167.822 154.796H162.926V161H160.418ZM170.522 161L167.114 153.968L169.646 153.32L173.39 161H170.522ZM162.926 152.42H167.306C167.466 152.42 167.642 152.412 167.834 152.396C168.034 152.38 168.222 152.352 168.398 152.312C168.91 152.192 169.322 151.972 169.634 151.652C169.946 151.324 170.17 150.948 170.306 150.524C170.442 150.1 170.51 149.676 170.51 149.252C170.51 148.828 170.442 148.408 170.306 147.992C170.17 147.568 169.946 147.196 169.634 146.876C169.322 146.548 168.91 146.324 168.398 146.204C168.222 146.156 168.034 146.124 167.834 146.108C167.642 146.092 167.466 146.084 167.306 146.084H162.926V152.42ZM181.055 161.36C179.767 161.36 178.635 161.08 177.659 160.52C176.691 159.952 175.935 159.164 175.391 158.156C174.855 157.14 174.587 155.964 174.587 154.628C174.587 153.212 174.851 151.984 175.379 150.944C175.915 149.904 176.659 149.1 177.611 148.532C178.563 147.964 179.671 147.68 180.935 147.68C182.255 147.68 183.379 147.988 184.307 148.604C185.235 149.212 185.927 150.08 186.383 151.208C186.847 152.336 187.031 153.676 186.935 155.228H184.427V154.316C184.411 152.812 184.123 151.7 183.563 150.98C183.011 150.26 182.167 149.9 181.031 149.9C179.775 149.9 178.831 150.296 178.199 151.088C177.567 151.88 177.251 153.024 177.251 154.52C177.251 155.944 177.567 157.048 178.199 157.832C178.831 158.608 179.743 158.996 180.935 158.996C181.719 158.996 182.395 158.82 182.963 158.468C183.539 158.108 183.987 157.596 184.307 156.932L186.767 157.712C186.263 158.872 185.499 159.772 184.475 160.412C183.451 161.044 182.311 161.36 181.055 161.36ZM176.435 155.228V153.272H185.687V155.228H176.435ZM194.64 161.36C193.4 161.36 192.36 161.06 191.52 160.46C190.68 159.852 190.044 159.032 189.612 158C189.18 156.968 188.964 155.804 188.964 154.508C188.964 153.212 189.176 152.048 189.6 151.016C190.032 149.984 190.664 149.172 191.496 148.58C192.336 147.98 193.368 147.68 194.592 147.68C195.808 147.68 196.856 147.98 197.736 148.58C198.624 149.172 199.308 149.984 199.788 151.016C200.268 152.04 200.508 153.204 200.508 154.508C200.508 155.804 200.268 156.972 199.788 158.012C199.316 159.044 198.64 159.86 197.76 160.46C196.888 161.06 195.848 161.36 194.64 161.36ZM188.544 166.76V148.04H190.776V157.364H191.064V166.76H188.544ZM194.292 159.092C195.092 159.092 195.752 158.888 196.272 158.48C196.8 158.072 197.192 157.524 197.448 156.836C197.712 156.14 197.844 155.364 197.844 154.508C197.844 153.66 197.712 152.892 197.448 152.204C197.192 151.516 196.796 150.968 196.26 150.56C195.724 150.152 195.04 149.948 194.208 149.948C193.424 149.948 192.776 150.14 192.264 150.524C191.76 150.908 191.384 151.444 191.136 152.132C190.896 152.82 190.776 153.612 190.776 154.508C190.776 155.404 190.896 156.196 191.136 156.884C191.376 157.572 191.756 158.112 192.276 158.504C192.796 158.896 193.468 159.092 194.292 159.092ZM206.097 161.36C205.137 161.36 204.333 161.184 203.685 160.832C203.037 160.472 202.545 160 202.209 159.416C201.881 158.824 201.717 158.176 201.717 157.472C201.717 156.816 201.833 156.24 202.065 155.744C202.297 155.248 202.641 154.828 203.097 154.484C203.553 154.132 204.113 153.848 204.777 153.632C205.353 153.464 206.005 153.316 206.733 153.188C207.461 153.06 208.225 152.94 209.025 152.828C209.833 152.716 210.633 152.604 211.425 152.492L210.513 152.996C210.529 151.98 210.313 151.228 209.865 150.74C209.425 150.244 208.665 149.996 207.585 149.996C206.905 149.996 206.281 150.156 205.713 150.476C205.145 150.788 204.749 151.308 204.525 152.036L202.185 151.316C202.505 150.204 203.113 149.32 204.009 148.664C204.913 148.008 206.113 147.68 207.609 147.68C208.769 147.68 209.777 147.88 210.633 148.28C211.497 148.672 212.129 149.296 212.529 150.152C212.737 150.576 212.865 151.024 212.913 151.496C212.961 151.968 212.985 152.476 212.985 153.02V161H210.765V158.036L211.197 158.42C210.661 159.412 209.977 160.152 209.145 160.64C208.321 161.12 207.305 161.36 206.097 161.36ZM206.541 159.308C207.253 159.308 207.865 159.184 208.377 158.936C208.889 158.68 209.301 158.356 209.613 157.964C209.925 157.572 210.129 157.164 210.225 156.74C210.361 156.356 210.437 155.924 210.453 155.444C210.477 154.964 210.489 154.58 210.489 154.292L211.305 154.592C210.513 154.712 209.793 154.82 209.145 154.916C208.497 155.012 207.909 155.108 207.381 155.204C206.861 155.292 206.397 155.4 205.989 155.528C205.645 155.648 205.337 155.792 205.065 155.96C204.801 156.128 204.589 156.332 204.429 156.572C204.277 156.812 204.201 157.104 204.201 157.448C204.201 157.784 204.285 158.096 204.453 158.384C204.621 158.664 204.877 158.888 205.221 159.056C205.565 159.224 206.005 159.308 206.541 159.308ZM215.621 145.916V143.48H218.129V145.916H215.621ZM215.621 161V148.04H218.129V161H215.621ZM221.013 161V148.04H223.245V151.184L222.933 150.776C223.093 150.36 223.301 149.98 223.557 149.636C223.813 149.284 224.109 148.996 224.445 148.772C224.773 148.532 225.137 148.348 225.537 148.22C225.945 148.084 226.361 148.004 226.785 147.98C227.209 147.948 227.617 147.968 228.009 148.04V150.392C227.585 150.28 227.113 150.248 226.593 150.296C226.081 150.344 225.609 150.508 225.177 150.788C224.769 151.052 224.445 151.372 224.205 151.748C223.973 152.124 223.805 152.544 223.701 153.008C223.597 153.464 223.545 153.948 223.545 154.46V161H221.013Z" fill="white"/>
<path d="M158 83.6667C149.545 83.6667 142.667 90.5455 142.667 99.0001C142.667 107.455 149.545 114.333 158 114.333C166.455 114.333 173.333 107.455 173.333 99.0001C173.333 90.5455 166.455 83.6667 158 83.6667ZM165.844 89.3943C166.017 89.2025 166.26 89.0892 166.518 89.0789C166.741 89.0537 167.027 89.1622 167.215 89.34C169.202 91.2221 170.554 93.6179 171.119 96.2683C171.209 96.6913 171.005 97.1218 170.621 97.3202C169.683 97.805 168.57 98.0399 167.503 98.0399C166.112 98.0399 164.794 97.6411 164.031 96.8775C162.406 95.2538 163.083 92.4565 165.844 89.3943ZM150.155 108.756C149.983 108.947 149.74 109.062 149.482 109.072C149.47 109.073 149.457 109.073 149.444 109.073C149.199 109.073 148.963 108.979 148.785 108.811C146.798 106.929 145.446 104.533 144.881 101.882C144.791 101.459 144.995 101.028 145.379 100.83C147.539 99.7151 150.62 99.9228 151.969 101.272C153.592 102.896 152.914 105.693 150.155 108.756ZM151.969 96.8776C151.205 97.6412 149.888 98.04 148.497 98.04C147.43 98.04 146.318 97.805 145.379 97.3203C144.995 97.1219 144.791 96.6914 144.881 96.2684C145.446 93.618 146.797 91.2222 148.785 89.3401C148.972 89.1623 149.248 89.0519 149.482 89.079C149.74 89.0894 149.983 89.2026 150.155 89.3944C152.916 92.4565 153.594 95.2538 151.969 96.8776ZM162.084 111.779C160.757 112.202 159.383 112.417 158 112.417C156.617 112.417 155.243 112.203 153.916 111.779C153.495 111.645 153.219 111.24 153.249 110.8C153.489 107.351 155.531 104.75 158 104.75C160.469 104.75 162.511 107.351 162.75 110.8C162.78 111.24 162.505 111.645 162.084 111.779ZM154.167 99.0001C154.167 96.886 155.887 95.1667 158 95.1667C160.113 95.1667 161.833 96.8859 161.833 99.0001C161.833 101.114 160.113 102.833 158 102.833C155.887 102.833 154.167 101.114 154.167 99.0001ZM162.75 87.2764C162.511 90.7242 160.469 93.325 158 93.325C155.531 93.325 153.489 90.7242 153.249 87.2764C153.219 86.8356 153.493 86.4313 153.914 86.2975C156.568 85.4495 159.432 85.4495 162.086 86.2975C162.507 86.4313 162.78 86.8356 162.75 87.2764ZM171.119 101.729C170.554 104.38 169.202 106.776 167.215 108.658C167.037 108.827 166.801 108.92 166.556 108.92C166.543 108.92 166.529 108.92 166.518 108.919C166.26 108.909 166.017 108.796 165.844 108.604C163.084 105.542 162.406 102.744 164.031 101.12C165.38 99.7695 168.459 99.5645 170.621 100.677C171.005 100.876 171.209 101.306 171.119 101.729Z" fill="white"/>
<path d="M158 76C145.317 76 135 86.318 135 99C135 111.682 145.317 122 158 122C170.683 122 181 111.682 181 99C181 86.318 170.683 76 158 76ZM158 116.25C148.488 116.25 140.75 108.511 140.75 99C140.75 89.4887 148.488 81.75 158 81.75C167.512 81.75 175.25 89.4887 175.25 99C175.25 108.511 167.512 116.25 158 116.25Z" fill="white"/>
</svg>
