<svg width="316" height="232" viewBox="0 0 316 232" fill="none" xmlns="http://www.w3.org/2000/svg">
<rect width="316" height="232" fill="white"/>
<path d="M102.873 161V143.72H109.665C110.761 143.72 111.681 143.944 112.425 144.392C113.169 144.84 113.729 145.42 114.105 146.132C114.481 146.836 114.669 147.58 114.669 148.364C114.669 149.316 114.433 150.132 113.961 150.812C113.497 151.492 112.869 151.956 112.077 152.204L112.053 151.616C113.157 151.888 114.005 152.42 114.597 153.212C115.189 153.996 115.485 154.912 115.485 155.96C115.485 156.976 115.281 157.86 114.873 158.612C114.473 159.364 113.885 159.952 113.109 160.376C112.341 160.792 111.409 161 110.313 161H102.873ZM105.417 158.612H109.929C110.497 158.612 111.005 158.504 111.453 158.288C111.909 158.072 112.265 157.764 112.521 157.364C112.785 156.956 112.917 156.472 112.917 155.912C112.917 155.392 112.801 154.924 112.569 154.508C112.345 154.084 112.017 153.752 111.585 153.512C111.161 153.264 110.661 153.14 110.085 153.14H105.417V158.612ZM105.417 150.776H109.629C110.093 150.776 110.509 150.684 110.877 150.5C111.253 150.308 111.549 150.036 111.765 149.684C111.989 149.324 112.101 148.892 112.101 148.388C112.101 147.716 111.877 147.164 111.429 146.732C110.981 146.3 110.381 146.084 109.629 146.084H105.417V150.776ZM122.781 161.36C121.485 161.36 120.361 161.068 119.409 160.484C118.457 159.9 117.721 159.096 117.201 158.072C116.689 157.04 116.433 155.852 116.433 154.508C116.433 153.156 116.697 151.968 117.225 150.944C117.753 149.912 118.493 149.112 119.445 148.544C120.397 147.968 121.509 147.68 122.781 147.68C124.077 147.68 125.201 147.972 126.153 148.556C127.105 149.14 127.841 149.944 128.361 150.968C128.881 151.992 129.141 153.172 129.141 154.508C129.141 155.86 128.877 157.052 128.349 158.084C127.829 159.108 127.093 159.912 126.141 160.496C125.189 161.072 124.069 161.36 122.781 161.36ZM122.781 158.996C124.021 158.996 124.945 158.58 125.553 157.748C126.169 156.908 126.477 155.828 126.477 154.508C126.477 153.156 126.165 152.076 125.541 151.268C124.925 150.452 124.005 150.044 122.781 150.044C121.941 150.044 121.249 150.236 120.705 150.62C120.161 150.996 119.757 151.52 119.493 152.192C119.229 152.856 119.097 153.628 119.097 154.508C119.097 155.868 119.409 156.956 120.033 157.772C120.657 158.588 121.573 158.996 122.781 158.996ZM136.206 161.36C134.998 161.36 133.954 161.06 133.074 160.46C132.202 159.86 131.526 159.044 131.046 158.012C130.574 156.972 130.338 155.804 130.338 154.508C130.338 153.204 130.578 152.04 131.058 151.016C131.538 149.984 132.218 149.172 133.098 148.58C133.986 147.98 135.038 147.68 136.254 147.68C137.478 147.68 138.506 147.98 139.338 148.58C140.178 149.172 140.81 149.984 141.234 151.016C141.666 152.048 141.882 153.212 141.882 154.508C141.882 155.804 141.666 156.968 141.234 158C140.802 159.032 140.166 159.852 139.326 160.46C138.486 161.06 137.446 161.36 136.206 161.36ZM136.554 159.092C137.378 159.092 138.05 158.896 138.57 158.504C139.09 158.112 139.47 157.572 139.71 156.884C139.95 156.196 140.07 155.404 140.07 154.508C140.07 153.612 139.946 152.82 139.698 152.132C139.458 151.444 139.082 150.908 138.57 150.524C138.066 150.14 137.422 149.948 136.638 149.948C135.806 149.948 135.122 150.152 134.586 150.56C134.05 150.968 133.65 151.516 133.386 152.204C133.13 152.892 133.002 153.66 133.002 154.508C133.002 155.364 133.13 156.14 133.386 156.836C133.65 157.524 134.042 158.072 134.562 158.48C135.09 158.888 135.754 159.092 136.554 159.092ZM140.07 161V151.676H139.782V143.72H142.302V161H140.07ZM146.691 166.76L149.199 159.932L149.235 161.948L143.583 148.04H146.199L150.423 158.78H149.655L153.687 148.04H156.231L149.079 166.76H146.691ZM165.136 161L160.12 143.72H162.748L166.384 156.788L170.02 143.732L172.66 143.72L176.296 156.788L179.932 143.72H182.572L177.544 161H175.048L171.34 148.076L167.632 161H165.136ZM188.063 161.36C186.767 161.36 185.643 161.068 184.691 160.484C183.739 159.9 183.003 159.096 182.483 158.072C181.971 157.04 181.715 155.852 181.715 154.508C181.715 153.156 181.979 151.968 182.507 150.944C183.035 149.912 183.775 149.112 184.727 148.544C185.679 147.968 186.791 147.68 188.063 147.68C189.359 147.68 190.483 147.972 191.435 148.556C192.387 149.14 193.123 149.944 193.643 150.968C194.163 151.992 194.423 153.172 194.423 154.508C194.423 155.86 194.159 157.052 193.631 158.084C193.111 159.108 192.375 159.912 191.423 160.496C190.471 161.072 189.351 161.36 188.063 161.36ZM188.063 158.996C189.303 158.996 190.227 158.58 190.835 157.748C191.451 156.908 191.759 155.828 191.759 154.508C191.759 153.156 191.447 152.076 190.823 151.268C190.207 150.452 189.287 150.044 188.063 150.044C187.223 150.044 186.531 150.236 185.987 150.62C185.443 150.996 185.039 151.52 184.775 152.192C184.511 152.856 184.379 153.628 184.379 154.508C184.379 155.868 184.691 156.956 185.315 157.772C185.939 158.588 186.855 158.996 188.063 158.996ZM196.34 161V148.04H198.572V151.184L198.26 150.776C198.42 150.36 198.628 149.98 198.884 149.636C199.14 149.284 199.436 148.996 199.772 148.772C200.1 148.532 200.464 148.348 200.864 148.22C201.272 148.084 201.688 148.004 202.112 147.98C202.536 147.948 202.944 147.968 203.336 148.04V150.392C202.912 150.28 202.44 150.248 201.92 150.296C201.408 150.344 200.936 150.508 200.504 150.788C200.096 151.052 199.772 151.372 199.532 151.748C199.3 152.124 199.132 152.544 199.028 153.008C198.924 153.464 198.872 153.948 198.872 154.46V161H196.34ZM204.89 161L204.902 143.72H207.446V154.28L212.534 148.04H215.726L210.35 154.52L216.278 161H212.87L207.446 154.76V161H204.89Z" fill="#1E1B1B"/>
<path d="M184.835 90.8573C184.57 90.5343 184.175 90.3457 183.76 90.3457H178.49C177.19 86.9158 175.496 83.5553 173.57 82.2867C166.909 77.9044 149.239 77.9044 142.578 82.2867C140.651 83.5567 138.964 86.9214 137.656 90.3457H132.387C131.968 90.3457 131.574 90.5343 131.312 90.8573C131.049 91.1789 130.943 91.6046 131.029 92.0135L131.81 95.7956C131.943 96.4402 132.511 96.9005 133.167 96.9005H134.728C133.221 98.639 132.491 100.828 132.481 103.019C132.471 105.725 133.498 108.17 135.377 109.901C135.398 109.919 135.419 109.931 135.438 109.949V115.241C135.438 116.387 136.37 117.32 137.518 117.32H142.378C143.526 117.32 144.458 116.387 144.458 115.241V113.114H171.688V115.241C171.688 116.387 172.619 117.32 173.767 117.32H178.628C179.773 117.32 180.707 116.387 180.707 115.241V110.053C182.701 108.227 183.653 105.715 183.666 103.207C183.674 100.942 182.91 98.6723 181.315 96.8977H182.98C183.638 96.8977 184.206 96.4375 184.337 95.7914L185.119 92.0108C185.199 91.6046 185.098 91.1817 184.835 90.8573ZM144.861 85.7596C150.171 82.2646 165.974 82.2646 171.281 85.7596C172.313 86.4362 173.64 89.1715 174.855 92.521H141.29C142.503 89.1729 143.83 86.4389 144.861 85.7596ZM138.642 103.54C138.642 101.28 140.475 99.4501 142.733 99.4501C144.994 99.4501 146.824 101.28 146.824 103.54C146.824 105.8 144.994 107.631 142.733 107.631C140.475 107.631 138.642 105.8 138.642 103.54ZM173.466 107.631C171.208 107.631 169.375 105.8 169.375 103.54C169.375 101.28 171.208 99.4501 173.466 99.4501C175.727 99.4501 177.557 101.28 177.557 103.54C177.557 105.8 175.725 107.631 173.466 107.631Z" fill="#1E1B1B"/>
</svg>
