<svg width="316" height="232" viewBox="0 0 316 232" fill="none" xmlns="http://www.w3.org/2000/svg">
<rect width="316" height="232" fill="white"/>
<path d="M96.1127 161V143.72H101.525C101.685 143.72 101.981 143.724 102.413 143.732C102.853 143.74 103.273 143.772 103.673 143.828C105.025 143.996 106.161 144.48 107.081 145.28C108.009 146.08 108.709 147.096 109.181 148.328C109.653 149.552 109.889 150.896 109.889 152.36C109.889 153.832 109.653 155.184 109.181 156.416C108.709 157.64 108.009 158.652 107.081 159.452C106.161 160.244 105.025 160.724 103.673 160.892C103.273 160.948 102.853 160.98 102.413 160.988C101.981 160.996 101.685 161 101.525 161H96.1127ZM98.6807 158.612H101.525C101.797 158.612 102.121 158.604 102.497 158.588C102.873 158.572 103.205 158.54 103.493 158.492C104.373 158.324 105.085 157.944 105.629 157.352C106.181 156.752 106.585 156.016 106.841 155.144C107.097 154.272 107.225 153.344 107.225 152.36C107.225 151.344 107.093 150.404 106.829 149.54C106.565 148.668 106.157 147.94 105.605 147.356C105.061 146.764 104.357 146.388 103.493 146.228C103.205 146.172 102.869 146.14 102.485 146.132C102.109 146.116 101.789 146.108 101.525 146.108H98.6807V158.612ZM112.203 145.916V143.48H114.711V145.916H112.203ZM112.203 161V148.04H114.711V161H112.203ZM121.255 161.36C120.295 161.36 119.491 161.184 118.843 160.832C118.195 160.472 117.703 160 117.367 159.416C117.039 158.824 116.875 158.176 116.875 157.472C116.875 156.816 116.991 156.24 117.223 155.744C117.455 155.248 117.799 154.828 118.255 154.484C118.711 154.132 119.271 153.848 119.935 153.632C120.511 153.464 121.163 153.316 121.891 153.188C122.619 153.06 123.383 152.94 124.183 152.828C124.991 152.716 125.791 152.604 126.583 152.492L125.671 152.996C125.687 151.98 125.471 151.228 125.023 150.74C124.583 150.244 123.823 149.996 122.743 149.996C122.063 149.996 121.439 150.156 120.871 150.476C120.303 150.788 119.907 151.308 119.683 152.036L117.343 151.316C117.663 150.204 118.271 149.32 119.167 148.664C120.071 148.008 121.271 147.68 122.767 147.68C123.927 147.68 124.935 147.88 125.791 148.28C126.655 148.672 127.287 149.296 127.687 150.152C127.895 150.576 128.023 151.024 128.071 151.496C128.119 151.968 128.143 152.476 128.143 153.02V161H125.923V158.036L126.355 158.42C125.819 159.412 125.135 160.152 124.303 160.64C123.479 161.12 122.463 161.36 121.255 161.36ZM121.699 159.308C122.411 159.308 123.023 159.184 123.535 158.936C124.047 158.68 124.459 158.356 124.771 157.964C125.083 157.572 125.287 157.164 125.383 156.74C125.519 156.356 125.595 155.924 125.611 155.444C125.635 154.964 125.647 154.58 125.647 154.292L126.463 154.592C125.671 154.712 124.951 154.82 124.303 154.916C123.655 155.012 123.067 155.108 122.539 155.204C122.019 155.292 121.555 155.4 121.147 155.528C120.803 155.648 120.495 155.792 120.223 155.96C119.959 156.128 119.747 156.332 119.587 156.572C119.435 156.812 119.359 157.104 119.359 157.448C119.359 157.784 119.443 158.096 119.611 158.384C119.779 158.664 120.035 158.888 120.379 159.056C120.723 159.224 121.163 159.308 121.699 159.308ZM135.879 167.12C135.183 167.12 134.507 167.012 133.851 166.796C133.203 166.58 132.611 166.26 132.075 165.836C131.539 165.42 131.095 164.904 130.743 164.288L133.059 163.112C133.339 163.664 133.739 164.068 134.259 164.324C134.779 164.58 135.327 164.708 135.903 164.708C136.615 164.708 137.223 164.58 137.727 164.324C138.231 164.076 138.611 163.7 138.867 163.196C139.131 162.692 139.259 162.068 139.251 161.324V157.7H139.551V148.04H141.771V161.348C141.771 161.692 141.759 162.02 141.735 162.332C141.711 162.644 141.667 162.956 141.603 163.268C141.419 164.14 141.067 164.86 140.547 165.428C140.035 165.996 139.379 166.42 138.579 166.7C137.787 166.98 136.887 167.12 135.879 167.12ZM135.687 161.36C134.479 161.36 133.435 161.06 132.555 160.46C131.683 159.86 131.007 159.044 130.527 158.012C130.055 156.972 129.819 155.804 129.819 154.508C129.819 153.204 130.059 152.04 130.539 151.016C131.019 149.984 131.699 149.172 132.579 148.58C133.467 147.98 134.519 147.68 135.735 147.68C136.959 147.68 137.987 147.98 138.819 148.58C139.659 149.172 140.291 149.984 140.715 151.016C141.147 152.048 141.363 153.212 141.363 154.508C141.363 155.804 141.147 156.968 140.715 158C140.283 159.032 139.647 159.852 138.807 160.46C137.967 161.06 136.927 161.36 135.687 161.36ZM136.035 159.092C136.859 159.092 137.531 158.896 138.051 158.504C138.571 158.112 138.951 157.572 139.191 156.884C139.431 156.196 139.551 155.404 139.551 154.508C139.551 153.612 139.427 152.82 139.179 152.132C138.939 151.444 138.563 150.908 138.051 150.524C137.547 150.14 136.903 149.948 136.119 149.948C135.287 149.948 134.603 150.152 134.067 150.56C133.531 150.968 133.131 151.516 132.867 152.204C132.611 152.892 132.483 153.66 132.483 154.508C132.483 155.364 132.611 156.14 132.867 156.836C133.131 157.524 133.523 158.072 134.043 158.48C134.571 158.888 135.235 159.092 136.035 159.092ZM153.516 161V154.628C153.516 154.124 153.472 153.608 153.384 153.08C153.304 152.544 153.144 152.048 152.904 151.592C152.672 151.136 152.34 150.768 151.908 150.488C151.484 150.208 150.928 150.068 150.24 150.068C149.792 150.068 149.368 150.144 148.968 150.296C148.568 150.44 148.216 150.676 147.912 151.004C147.616 151.332 147.38 151.764 147.204 152.3C147.036 152.836 146.952 153.488 146.952 154.256L145.392 153.668C145.392 152.492 145.612 151.456 146.052 150.56C146.492 149.656 147.124 148.952 147.948 148.448C148.772 147.944 149.768 147.692 150.936 147.692C151.832 147.692 152.584 147.836 153.192 148.124C153.8 148.412 154.292 148.792 154.668 149.264C155.052 149.728 155.344 150.236 155.544 150.788C155.744 151.34 155.88 151.88 155.952 152.408C156.024 152.936 156.06 153.4 156.06 153.8V161H153.516ZM144.408 161V148.04H146.652V151.784H146.952V161H144.408ZM163.93 161.36C162.634 161.36 161.51 161.068 160.558 160.484C159.606 159.9 158.87 159.096 158.35 158.072C157.838 157.04 157.582 155.852 157.582 154.508C157.582 153.156 157.846 151.968 158.374 150.944C158.902 149.912 159.642 149.112 160.594 148.544C161.546 147.968 162.658 147.68 163.93 147.68C165.226 147.68 166.35 147.972 167.302 148.556C168.254 149.14 168.99 149.944 169.51 150.968C170.03 151.992 170.29 153.172 170.29 154.508C170.29 155.86 170.026 157.052 169.498 158.084C168.978 159.108 168.242 159.912 167.29 160.496C166.338 161.072 165.218 161.36 163.93 161.36ZM163.93 158.996C165.17 158.996 166.094 158.58 166.702 157.748C167.318 156.908 167.626 155.828 167.626 154.508C167.626 153.156 167.314 152.076 166.69 151.268C166.074 150.452 165.154 150.044 163.93 150.044C163.09 150.044 162.398 150.236 161.854 150.62C161.31 150.996 160.906 151.52 160.642 152.192C160.378 152.856 160.246 153.628 160.246 154.508C160.246 155.868 160.558 156.956 161.182 157.772C161.806 158.588 162.722 158.996 163.93 158.996ZM176.928 161.348C175.352 161.348 174.068 161 173.076 160.304C172.084 159.608 171.476 158.628 171.252 157.364L173.82 156.968C173.98 157.64 174.348 158.172 174.924 158.564C175.508 158.948 176.232 159.14 177.096 159.14C177.88 159.14 178.492 158.98 178.932 158.66C179.38 158.34 179.604 157.9 179.604 157.34C179.604 157.012 179.524 156.748 179.364 156.548C179.212 156.34 178.888 156.144 178.392 155.96C177.896 155.776 177.14 155.548 176.124 155.276C175.012 154.988 174.128 154.68 173.472 154.352C172.824 154.016 172.36 153.628 172.08 153.188C171.808 152.74 171.672 152.2 171.672 151.568C171.672 150.784 171.88 150.1 172.296 149.516C172.712 148.932 173.296 148.48 174.048 148.16C174.808 147.84 175.696 147.68 176.712 147.68C177.704 147.68 178.588 147.836 179.364 148.148C180.14 148.46 180.768 148.904 181.248 149.48C181.728 150.048 182.016 150.716 182.112 151.484L179.544 151.952C179.456 151.328 179.164 150.836 178.668 150.476C178.172 150.116 177.528 149.92 176.736 149.888C175.976 149.856 175.36 149.984 174.888 150.272C174.416 150.552 174.18 150.94 174.18 151.436C174.18 151.724 174.268 151.968 174.444 152.168C174.628 152.368 174.98 152.56 175.5 152.744C176.02 152.928 176.788 153.148 177.804 153.404C178.892 153.684 179.756 153.996 180.396 154.34C181.036 154.676 181.492 155.08 181.764 155.552C182.044 156.016 182.184 156.58 182.184 157.244C182.184 158.524 181.716 159.528 180.78 160.256C179.852 160.984 178.568 161.348 176.928 161.348ZM191.536 161C190.72 161.16 189.92 161.228 189.136 161.204C188.352 161.18 187.652 161.028 187.036 160.748C186.42 160.468 185.956 160.028 185.644 159.428C185.364 158.892 185.212 158.348 185.188 157.796C185.172 157.236 185.164 156.604 185.164 155.9V144.44H187.684V155.78C187.684 156.3 187.688 156.752 187.696 157.136C187.712 157.52 187.796 157.844 187.948 158.108C188.236 158.604 188.692 158.888 189.316 158.96C189.948 159.024 190.688 158.996 191.536 158.876V161ZM182.68 150.056V148.04H191.536V150.056H182.68ZM193.788 145.916V143.48H196.296V145.916H193.788ZM193.788 161V148.04H196.296V161H193.788ZM204.724 161.36C203.396 161.36 202.268 161.064 201.34 160.472C200.412 159.88 199.7 159.068 199.204 158.036C198.716 157.004 198.468 155.832 198.46 154.52C198.468 153.184 198.724 152.004 199.228 150.98C199.732 149.948 200.452 149.14 201.388 148.556C202.324 147.972 203.448 147.68 204.76 147.68C206.176 147.68 207.384 148.032 208.384 148.736C209.392 149.44 210.056 150.404 210.376 151.628L207.88 152.348C207.632 151.62 207.224 151.056 206.656 150.656C206.096 150.248 205.452 150.044 204.724 150.044C203.9 150.044 203.224 150.24 202.696 150.632C202.168 151.016 201.776 151.544 201.52 152.216C201.264 152.888 201.132 153.656 201.124 154.52C201.132 155.856 201.436 156.936 202.036 157.76C202.644 158.584 203.54 158.996 204.724 158.996C205.532 158.996 206.184 158.812 206.68 158.444C207.184 158.068 207.568 157.532 207.832 156.836L210.376 157.436C209.952 158.7 209.252 159.672 208.276 160.352C207.3 161.024 206.116 161.36 204.724 161.36ZM217.056 161.348C215.48 161.348 214.196 161 213.204 160.304C212.212 159.608 211.604 158.628 211.38 157.364L213.948 156.968C214.108 157.64 214.476 158.172 215.052 158.564C215.636 158.948 216.36 159.14 217.224 159.14C218.008 159.14 218.62 158.98 219.06 158.66C219.508 158.34 219.732 157.9 219.732 157.34C219.732 157.012 219.652 156.748 219.492 156.548C219.34 156.34 219.016 156.144 218.52 155.96C218.024 155.776 217.268 155.548 216.252 155.276C215.14 154.988 214.256 154.68 213.6 154.352C212.952 154.016 212.488 153.628 212.208 153.188C211.936 152.74 211.8 152.2 211.8 151.568C211.8 150.784 212.008 150.1 212.424 149.516C212.84 148.932 213.424 148.48 214.176 148.16C214.936 147.84 215.824 147.68 216.84 147.68C217.832 147.68 218.716 147.836 219.492 148.148C220.268 148.46 220.896 148.904 221.376 149.48C221.856 150.048 222.144 150.716 222.24 151.484L219.672 151.952C219.584 151.328 219.292 150.836 218.796 150.476C218.3 150.116 217.656 149.92 216.864 149.888C216.104 149.856 215.488 149.984 215.016 150.272C214.544 150.552 214.308 150.94 214.308 151.436C214.308 151.724 214.396 151.968 214.572 152.168C214.756 152.368 215.108 152.56 215.628 152.744C216.148 152.928 216.916 153.148 217.932 153.404C219.02 153.684 219.884 153.996 220.524 154.34C221.164 154.676 221.62 155.08 221.892 155.552C222.172 156.016 222.312 156.58 222.312 157.244C222.312 158.524 221.844 159.528 220.908 160.256C219.98 160.984 218.696 161.348 217.056 161.348Z" fill="#1E1B1B"/>
<path d="M136.253 96.0167C136.468 95.7483 136.789 95.5917 137.126 95.5917H141.408C142.465 92.7424 143.842 89.9508 145.406 88.897C150.82 85.2565 165.178 85.2565 170.592 88.897C172.158 89.9519 173.529 92.747 174.591 95.5917H178.873C179.213 95.5917 179.533 95.7483 179.746 96.0167C179.96 96.2839 180.046 96.6374 179.976 96.9772L179.342 100.119C179.234 100.654 178.772 101.037 178.239 101.037H176.97C178.195 102.481 178.789 104.3 178.797 106.119C178.804 108.367 177.97 110.399 176.443 111.836C176.426 111.851 176.409 111.862 176.394 111.876V116.272C176.394 117.225 175.636 118 174.704 118H170.754C169.821 118 169.064 117.225 169.064 116.272V114.506H146.936V116.272C146.936 117.225 146.179 118 145.246 118H141.297C140.366 118 139.607 117.225 139.607 116.272V111.963C137.987 110.446 137.213 108.359 137.203 106.276C137.196 104.394 137.817 102.509 139.113 101.035H137.76C137.225 101.035 136.763 100.652 136.657 100.116L136.022 96.9749C135.957 96.6374 136.039 96.2862 136.253 96.0167ZM168.736 91.7819C164.421 88.8785 151.579 88.8785 147.266 91.7819C146.428 92.344 145.35 94.6162 144.362 97.3987H171.638C170.652 94.6174 169.574 92.3463 168.736 91.7819ZM173.79 106.552C173.79 104.675 172.301 103.155 170.465 103.155C168.628 103.155 167.141 104.675 167.141 106.552C167.141 108.429 168.628 109.951 170.465 109.951C172.301 109.951 173.79 108.429 173.79 106.552ZM145.491 109.951C147.326 109.951 148.816 108.429 148.816 106.552C148.816 104.675 147.326 103.155 145.491 103.155C143.653 103.155 142.166 104.675 142.166 106.552C142.166 108.429 143.656 109.951 145.491 109.951Z" fill="#1E1B1B"/>
<mask id="mask0_482_1525" style="mask-type:alpha" maskUnits="userSpaceOnUse" x="142" y="69" width="25" height="28">
<path d="M162.555 83.4818C162.505 84.0402 162.198 84.5656 161.683 84.8602C161.256 85.1048 160.816 85.2847 160.366 85.4064C160.62 86.2806 161.085 87.5457 161.914 88.9007C162.701 90.1883 162.711 91.7423 161.939 93.1645C160.802 95.2606 158.292 96.6691 155.691 96.6691C153.905 96.6691 152.317 95.8283 151.221 94.3014C149.653 92.1184 149.306 88.8968 150.292 85.6853C151.206 82.7082 149.983 81.12 149.174 80.4373C148.515 81.0871 147.62 81.4878 146.632 81.4878C144.606 81.4878 142.962 79.8082 142.962 77.7362C142.962 75.6641 144.606 73.985 146.632 73.985C148.658 73.985 150.301 75.6646 150.301 77.7362C150.301 78.0279 150.265 78.3102 150.204 78.5828C151.732 79.7252 153.495 82.2966 152.261 86.3169C151.483 88.852 151.722 91.4327 152.885 93.0525C153.379 93.74 154.266 94.5593 155.692 94.5593C157.535 94.5593 159.362 93.5648 160.134 92.1416C160.419 91.6166 160.654 90.8214 160.163 90.0185C159.067 88.2249 158.519 86.5512 158.259 85.5282C157.649 85.4344 157.055 85.2335 156.483 84.9212C155.973 84.6428 155.66 84.1389 155.591 83.5943C153.166 81.3538 152.047 77.3169 151.983 77.0806C151.852 76.596 152.075 76.0984 152.492 75.8715C152.157 72.8409 153.254 71.3135 153.916 70.6913C153.866 70.4001 153.98 70.0886 154.23 69.9217L155.446 69.1089C155.764 68.8967 156.164 69.0038 156.338 69.3495L156.918 70.4948C157.092 70.8406 156.938 71.2093 156.574 71.3193L155.198 71.7338C154.849 71.8389 154.432 71.6685 154.234 71.3561C153.686 71.9464 152.897 73.2607 153.169 75.7678C153.542 75.8405 153.863 76.1189 153.971 76.5191C154.302 77.7317 155.256 80.2363 156.673 81.7382C157.125 81.56 157.643 81.5688 158.103 81.8192C158.403 81.9828 158.696 82.0652 158.996 82.0716H159.058C159.375 82.0647 159.685 81.9734 160.002 81.7922C160.45 81.5349 160.961 81.5123 161.412 81.6748C162.797 80.1668 163.731 77.7152 164.056 76.5193C164.165 76.1201 164.487 75.8411 164.859 75.7684C165.132 73.2613 164.343 71.9471 163.794 71.3568C163.596 71.6691 163.179 71.8396 162.83 71.7344L161.455 71.3199C161.091 71.2099 160.936 70.8406 161.111 70.4953L161.69 69.35C161.865 69.0042 162.264 68.8972 162.581 69.1094L163.799 69.9228C164.049 70.0897 164.163 70.4011 164.113 70.6923C164.774 71.3146 165.872 72.8414 165.537 75.8725C165.954 76.0994 166.176 76.5969 166.046 77.0821C165.983 77.3134 164.897 81.2217 162.555 83.4818ZM146.632 76.2708C145.841 76.2708 145.199 76.9265 145.199 77.7363C145.199 78.5456 145.841 79.2018 146.632 79.2018C147.423 79.2018 148.065 78.5456 148.065 77.7363C148.065 76.9264 147.424 76.2708 146.632 76.2708Z" fill="black"/>
</mask>
<g mask="url(#mask0_482_1525)">
<path d="M187.515 66.3444H154.486L151.1 75.2122L154.486 88.5377H187.515V66.3444Z" fill="#1E1B1B"/>
</g>
</svg>
