<svg width="316" height="232" viewBox="0 0 316 232" fill="none" xmlns="http://www.w3.org/2000/svg">
<rect width="316" height="232" fill="white"/>
<path d="M73.2608 161V143.72H75.7688V161H73.2608ZM87.7483 161V154.628C87.7483 154.124 87.7043 153.608 87.6163 153.08C87.5363 152.544 87.3763 152.048 87.1363 151.592C86.9043 151.136 86.5723 150.768 86.1403 150.488C85.7163 150.208 85.1603 150.068 84.4723 150.068C84.0243 150.068 83.6003 150.144 83.2003 150.296C82.8003 150.44 82.4483 150.676 82.1443 151.004C81.8483 151.332 81.6123 151.764 81.4363 152.3C81.2683 152.836 81.1843 153.488 81.1843 154.256L79.6243 153.668C79.6243 152.492 79.8443 151.456 80.2843 150.56C80.7243 149.656 81.3563 148.952 82.1803 148.448C83.0043 147.944 84.0003 147.692 85.1683 147.692C86.0643 147.692 86.8163 147.836 87.4243 148.124C88.0323 148.412 88.5243 148.792 88.9003 149.264C89.2843 149.728 89.5763 150.236 89.7763 150.788C89.9763 151.34 90.1123 151.88 90.1843 152.408C90.2563 152.936 90.2923 153.4 90.2923 153.8V161H87.7483ZM78.6403 161V148.04H80.8843V151.784H81.1843V161H78.6403ZM97.654 161.348C96.078 161.348 94.794 161 93.802 160.304C92.81 159.608 92.202 158.628 91.978 157.364L94.546 156.968C94.706 157.64 95.074 158.172 95.65 158.564C96.234 158.948 96.958 159.14 97.822 159.14C98.606 159.14 99.218 158.98 99.658 158.66C100.106 158.34 100.33 157.9 100.33 157.34C100.33 157.012 100.25 156.748 100.09 156.548C99.938 156.34 99.614 156.144 99.118 155.96C98.622 155.776 97.866 155.548 96.85 155.276C95.738 154.988 94.854 154.68 94.198 154.352C93.55 154.016 93.086 153.628 92.806 153.188C92.534 152.74 92.398 152.2 92.398 151.568C92.398 150.784 92.606 150.1 93.022 149.516C93.438 148.932 94.022 148.48 94.774 148.16C95.534 147.84 96.422 147.68 97.438 147.68C98.43 147.68 99.314 147.836 100.09 148.148C100.866 148.46 101.494 148.904 101.974 149.48C102.454 150.048 102.742 150.716 102.838 151.484L100.27 151.952C100.182 151.328 99.89 150.836 99.394 150.476C98.898 150.116 98.254 149.92 97.462 149.888C96.702 149.856 96.086 149.984 95.614 150.272C95.142 150.552 94.906 150.94 94.906 151.436C94.906 151.724 94.994 151.968 95.17 152.168C95.354 152.368 95.706 152.56 96.226 152.744C96.746 152.928 97.514 153.148 98.53 153.404C99.618 153.684 100.482 153.996 101.122 154.34C101.762 154.676 102.218 155.08 102.49 155.552C102.77 156.016 102.91 156.58 102.91 157.244C102.91 158.524 102.442 159.528 101.506 160.256C100.578 160.984 99.294 161.348 97.654 161.348ZM109.729 161.348C108.833 161.348 108.081 161.204 107.473 160.916C106.865 160.628 106.369 160.252 105.985 159.788C105.609 159.316 105.321 158.804 105.121 158.252C104.921 157.7 104.785 157.16 104.713 156.632C104.641 156.104 104.605 155.64 104.605 155.24V148.04H107.149V154.412C107.149 154.916 107.189 155.436 107.269 155.972C107.357 156.5 107.517 156.992 107.749 157.448C107.989 157.904 108.321 158.272 108.745 158.552C109.177 158.832 109.737 158.972 110.425 158.972C110.873 158.972 111.297 158.9 111.697 158.756C112.097 158.604 112.445 158.364 112.741 158.036C113.045 157.708 113.281 157.276 113.449 156.74C113.625 156.204 113.713 155.552 113.713 154.784L115.273 155.372C115.273 156.548 115.053 157.588 114.613 158.492C114.173 159.388 113.541 160.088 112.717 160.592C111.893 161.096 110.897 161.348 109.729 161.348ZM114.013 161V157.256H113.713V148.04H116.245V161H114.013ZM118.891 161V148.04H121.123V151.184L120.811 150.776C120.971 150.36 121.179 149.98 121.435 149.636C121.691 149.284 121.987 148.996 122.323 148.772C122.651 148.532 123.015 148.348 123.415 148.22C123.823 148.084 124.239 148.004 124.663 147.98C125.087 147.948 125.495 147.968 125.887 148.04V150.392C125.463 150.28 124.991 150.248 124.471 150.296C123.959 150.344 123.487 150.508 123.055 150.788C122.647 151.052 122.323 151.372 122.083 151.748C121.851 152.124 121.683 152.544 121.579 153.008C121.475 153.464 121.423 153.948 121.423 154.46V161H118.891ZM130.737 161.36C129.777 161.36 128.973 161.184 128.325 160.832C127.677 160.472 127.185 160 126.849 159.416C126.521 158.824 126.357 158.176 126.357 157.472C126.357 156.816 126.473 156.24 126.705 155.744C126.937 155.248 127.281 154.828 127.737 154.484C128.193 154.132 128.753 153.848 129.417 153.632C129.993 153.464 130.645 153.316 131.373 153.188C132.101 153.06 132.865 152.94 133.665 152.828C134.473 152.716 135.273 152.604 136.065 152.492L135.153 152.996C135.169 151.98 134.953 151.228 134.505 150.74C134.065 150.244 133.305 149.996 132.225 149.996C131.545 149.996 130.921 150.156 130.353 150.476C129.785 150.788 129.389 151.308 129.165 152.036L126.825 151.316C127.145 150.204 127.753 149.32 128.649 148.664C129.553 148.008 130.753 147.68 132.249 147.68C133.409 147.68 134.417 147.88 135.273 148.28C136.137 148.672 136.769 149.296 137.169 150.152C137.377 150.576 137.505 151.024 137.553 151.496C137.601 151.968 137.625 152.476 137.625 153.02V161H135.405V158.036L135.837 158.42C135.301 159.412 134.617 160.152 133.785 160.64C132.961 161.12 131.945 161.36 130.737 161.36ZM131.181 159.308C131.893 159.308 132.505 159.184 133.017 158.936C133.529 158.68 133.941 158.356 134.253 157.964C134.565 157.572 134.769 157.164 134.865 156.74C135.001 156.356 135.077 155.924 135.093 155.444C135.117 154.964 135.129 154.58 135.129 154.292L135.945 154.592C135.153 154.712 134.433 154.82 133.785 154.916C133.137 155.012 132.549 155.108 132.021 155.204C131.501 155.292 131.037 155.4 130.629 155.528C130.285 155.648 129.977 155.792 129.705 155.96C129.441 156.128 129.229 156.332 129.069 156.572C128.917 156.812 128.841 157.104 128.841 157.448C128.841 157.784 128.925 158.096 129.093 158.384C129.261 158.664 129.517 158.888 129.861 159.056C130.205 159.224 130.645 159.308 131.181 159.308ZM149.117 161V154.628C149.117 154.124 149.073 153.608 148.985 153.08C148.905 152.544 148.745 152.048 148.505 151.592C148.273 151.136 147.941 150.768 147.509 150.488C147.085 150.208 146.529 150.068 145.841 150.068C145.393 150.068 144.969 150.144 144.569 150.296C144.169 150.44 143.817 150.676 143.513 151.004C143.217 151.332 142.981 151.764 142.805 152.3C142.637 152.836 142.553 153.488 142.553 154.256L140.993 153.668C140.993 152.492 141.213 151.456 141.653 150.56C142.093 149.656 142.725 148.952 143.549 148.448C144.373 147.944 145.369 147.692 146.537 147.692C147.433 147.692 148.185 147.836 148.793 148.124C149.401 148.412 149.893 148.792 150.269 149.264C150.653 149.728 150.945 150.236 151.145 150.788C151.345 151.34 151.481 151.88 151.553 152.408C151.625 152.936 151.661 153.4 151.661 153.8V161H149.117ZM140.009 161V148.04H142.253V151.784H142.553V161H140.009ZM159.447 161.36C158.119 161.36 156.991 161.064 156.063 160.472C155.135 159.88 154.423 159.068 153.927 158.036C153.439 157.004 153.191 155.832 153.183 154.52C153.191 153.184 153.447 152.004 153.951 150.98C154.455 149.948 155.175 149.14 156.111 148.556C157.047 147.972 158.171 147.68 159.483 147.68C160.899 147.68 162.107 148.032 163.107 148.736C164.115 149.44 164.779 150.404 165.099 151.628L162.603 152.348C162.355 151.62 161.947 151.056 161.379 150.656C160.819 150.248 160.175 150.044 159.447 150.044C158.623 150.044 157.947 150.24 157.419 150.632C156.891 151.016 156.499 151.544 156.243 152.216C155.987 152.888 155.855 153.656 155.847 154.52C155.855 155.856 156.159 156.936 156.759 157.76C157.367 158.584 158.263 158.996 159.447 158.996C160.255 158.996 160.907 158.812 161.403 158.444C161.907 158.068 162.291 157.532 162.555 156.836L165.099 157.436C164.675 158.7 163.975 159.672 162.999 160.352C162.023 161.024 160.839 161.36 159.447 161.36ZM172.22 161.36C170.932 161.36 169.8 161.08 168.824 160.52C167.856 159.952 167.1 159.164 166.556 158.156C166.02 157.14 165.752 155.964 165.752 154.628C165.752 153.212 166.016 151.984 166.544 150.944C167.08 149.904 167.824 149.1 168.776 148.532C169.728 147.964 170.836 147.68 172.1 147.68C173.42 147.68 174.544 147.988 175.472 148.604C176.4 149.212 177.092 150.08 177.548 151.208C178.012 152.336 178.196 153.676 178.1 155.228H175.592V154.316C175.576 152.812 175.288 151.7 174.728 150.98C174.176 150.26 173.332 149.9 172.196 149.9C170.94 149.9 169.996 150.296 169.364 151.088C168.732 151.88 168.416 153.024 168.416 154.52C168.416 155.944 168.732 157.048 169.364 157.832C169.996 158.608 170.908 158.996 172.1 158.996C172.884 158.996 173.56 158.82 174.128 158.468C174.704 158.108 175.152 157.596 175.472 156.932L177.932 157.712C177.428 158.872 176.664 159.772 175.64 160.412C174.616 161.044 173.476 161.36 172.22 161.36ZM167.6 155.228V153.272H176.852V155.228H167.6ZM191.369 161.36C189.641 161.36 188.169 160.984 186.953 160.232C185.737 159.472 184.805 158.416 184.157 157.064C183.517 155.712 183.197 154.144 183.197 152.36C183.197 150.576 183.517 149.008 184.157 147.656C184.805 146.304 185.737 145.252 186.953 144.5C188.169 143.74 189.641 143.36 191.369 143.36C193.361 143.36 195.009 143.864 196.313 144.872C197.625 145.88 198.537 147.236 199.049 148.94L196.505 149.624C196.169 148.416 195.569 147.468 194.705 146.78C193.849 146.092 192.737 145.748 191.369 145.748C190.145 145.748 189.125 146.024 188.309 146.576C187.493 147.128 186.877 147.9 186.461 148.892C186.053 149.884 185.849 151.04 185.849 152.36C185.841 153.68 186.041 154.836 186.449 155.828C186.865 156.82 187.481 157.592 188.297 158.144C189.121 158.696 190.145 158.972 191.369 158.972C192.737 158.972 193.849 158.628 194.705 157.94C195.569 157.244 196.169 156.296 196.505 155.096L199.049 155.78C198.537 157.484 197.625 158.84 196.313 159.848C195.009 160.856 193.361 161.36 191.369 161.36ZM201.208 161V143.36H203.716V161H201.208ZM210.26 161.36C209.3 161.36 208.496 161.184 207.848 160.832C207.2 160.472 206.708 160 206.372 159.416C206.044 158.824 205.88 158.176 205.88 157.472C205.88 156.816 205.996 156.24 206.228 155.744C206.46 155.248 206.804 154.828 207.26 154.484C207.716 154.132 208.276 153.848 208.94 153.632C209.516 153.464 210.168 153.316 210.896 153.188C211.624 153.06 212.388 152.94 213.188 152.828C213.996 152.716 214.796 152.604 215.588 152.492L214.676 152.996C214.692 151.98 214.476 151.228 214.028 150.74C213.588 150.244 212.828 149.996 211.748 149.996C211.068 149.996 210.444 150.156 209.876 150.476C209.308 150.788 208.912 151.308 208.688 152.036L206.348 151.316C206.668 150.204 207.276 149.32 208.172 148.664C209.076 148.008 210.276 147.68 211.772 147.68C212.932 147.68 213.94 147.88 214.796 148.28C215.66 148.672 216.292 149.296 216.692 150.152C216.9 150.576 217.028 151.024 217.076 151.496C217.124 151.968 217.148 152.476 217.148 153.02V161H214.928V158.036L215.36 158.42C214.824 159.412 214.14 160.152 213.308 160.64C212.484 161.12 211.468 161.36 210.26 161.36ZM210.704 159.308C211.416 159.308 212.028 159.184 212.54 158.936C213.052 158.68 213.464 158.356 213.776 157.964C214.088 157.572 214.292 157.164 214.388 156.74C214.524 156.356 214.6 155.924 214.616 155.444C214.64 154.964 214.652 154.58 214.652 154.292L215.468 154.592C214.676 154.712 213.956 154.82 213.308 154.916C212.66 155.012 212.072 155.108 211.544 155.204C211.024 155.292 210.56 155.4 210.152 155.528C209.808 155.648 209.5 155.792 209.228 155.96C208.964 156.128 208.752 156.332 208.592 156.572C208.44 156.812 208.364 157.104 208.364 157.448C208.364 157.784 208.448 158.096 208.616 158.384C208.784 158.664 209.04 158.888 209.384 159.056C209.728 159.224 210.168 159.308 210.704 159.308ZM219.784 145.916V143.48H222.292V145.916H219.784ZM219.784 161V148.04H222.292V161H219.784ZM240.703 161L240.715 152.924C240.715 151.988 240.475 151.26 239.995 150.74C239.515 150.212 238.883 149.948 238.099 149.948C237.619 149.948 237.179 150.06 236.779 150.284C236.387 150.5 236.067 150.828 235.819 151.268C235.579 151.7 235.459 152.244 235.459 152.9L234.247 152.288C234.231 151.376 234.423 150.576 234.823 149.888C235.231 149.2 235.783 148.668 236.479 148.292C237.175 147.908 237.955 147.716 238.819 147.716C240.219 147.716 241.303 148.136 242.071 148.976C242.839 149.816 243.223 150.932 243.223 152.324L243.211 161H240.703ZM225.163 161V148.04H227.395V151.784H227.683V161H225.163ZM232.939 161L232.951 152.972C232.951 152.028 232.711 151.288 232.231 150.752C231.759 150.216 231.123 149.948 230.323 149.948C229.531 149.948 228.891 150.22 228.403 150.764C227.923 151.308 227.683 152.02 227.683 152.9L226.483 152.132C226.483 151.284 226.687 150.528 227.095 149.864C227.503 149.2 228.055 148.676 228.751 148.292C229.447 147.908 230.235 147.716 231.115 147.716C232.035 147.716 232.819 147.912 233.467 148.304C234.115 148.688 234.607 149.228 234.943 149.924C235.287 150.62 235.459 151.428 235.459 152.348L235.447 161H232.939Z" fill="#1E1B1B"/>
<path d="M161.147 84.0859H154.853C152.893 86.3195 150.433 88.04 147.668 89.1154V97.3604C147.668 104.333 151.705 110.586 158 113.449C164.295 110.586 168.332 104.333 168.332 97.3604V89.1163C165.566 88.0409 163.107 86.3204 161.147 84.0859ZM165.242 95.6785L156.856 104.064C156.593 104.327 156.248 104.459 155.904 104.459C155.559 104.459 155.214 104.327 154.951 104.064L150.758 99.8716C150.232 99.3451 150.232 98.4916 150.758 97.9651C151.284 97.4395 152.138 97.4395 152.664 97.9651L155.904 101.205L163.337 93.773C163.862 93.2465 164.716 93.2465 165.242 93.773C165.768 94.2994 165.768 95.152 165.242 95.6785ZM175.062 82.2891C171.177 82.2891 167.639 80.1544 165.826 76.7188C165.594 76.2767 165.134 76 164.635 76H151.365C150.865 76 150.406 76.2767 150.173 76.7188C148.361 80.1544 144.823 82.2891 140.93 82.2891C140.186 82.2891 139.582 82.8928 139.582 83.6367V97.3604C139.582 102.878 141.306 108.146 144.567 112.596C147.829 117.046 152.333 120.276 157.594 121.937C157.726 121.979 157.863 122 158 122C158.137 122 158.274 121.979 158.406 121.937C163.667 120.276 168.171 117.046 171.433 112.596C174.694 108.146 176.418 102.878 176.418 97.3604V83.6367C176.418 82.8928 175.806 82.2891 175.062 82.2891ZM171.027 97.2993C171.027 105.552 166.117 112.933 158.518 116.102C158.352 116.171 158.176 116.205 158 116.205C157.824 116.205 157.647 116.171 157.482 116.102C149.883 112.933 144.973 105.552 144.973 97.2993V88.1064C144.973 87.5243 145.346 87.0077 145.9 86.8262C148.76 85.8855 151.279 84.156 153.184 81.8246C153.44 81.511 153.824 81.3295 154.228 81.3295H161.772C162.185 81.3295 162.672 81.6494 162.816 81.8246C164.721 84.156 167.24 85.8855 170.1 86.8262C170.495 86.9555 170.796 87.2547 170.938 87.6276C170.94 87.6312 170.941 87.6357 170.943 87.6393C170.977 87.7318 171.001 87.8288 171.015 87.9286C171.016 87.9384 171.017 87.9492 171.018 87.9591C171.024 88.0076 171.027 88.0561 171.027 88.1064V97.2993Z" fill="#1E1B1B"/>
</svg>
