<svg width="316" height="232" viewBox="0 0 316 232" fill="none" xmlns="http://www.w3.org/2000/svg">
<rect width="316" height="232" fill="white"/>
<path d="M80.9509 161.36C79.2229 161.36 77.7509 160.984 76.5349 160.232C75.3189 159.472 74.3869 158.416 73.7389 157.064C73.0989 155.712 72.7789 154.144 72.7789 152.36C72.7789 150.576 73.0989 149.008 73.7389 147.656C74.3869 146.304 75.3189 145.252 76.5349 144.5C77.7509 143.74 79.2229 143.36 80.9509 143.36C82.9429 143.36 84.5909 143.864 85.8949 144.872C87.2069 145.88 88.1189 147.236 88.6309 148.94L86.0869 149.624C85.7509 148.416 85.1509 147.468 84.2869 146.78C83.4309 146.092 82.3189 145.748 80.9509 145.748C79.7269 145.748 78.7069 146.024 77.8909 146.576C77.0749 147.128 76.4589 147.9 76.0429 148.892C75.6349 149.884 75.4309 151.04 75.4309 152.36C75.4229 153.68 75.6229 154.836 76.0309 155.828C76.4469 156.82 77.0629 157.592 77.8789 158.144C78.7029 158.696 79.7269 158.972 80.9509 158.972C82.3189 158.972 83.4309 158.628 84.2869 157.94C85.1509 157.244 85.7509 156.296 86.0869 155.096L88.6309 155.78C88.1189 157.484 87.2069 158.84 85.8949 159.848C84.5909 160.856 82.9429 161.36 80.9509 161.36ZM95.4342 161.348C94.5382 161.348 93.7862 161.204 93.1782 160.916C92.5702 160.628 92.0742 160.252 91.6902 159.788C91.3142 159.316 91.0262 158.804 90.8262 158.252C90.6262 157.7 90.4902 157.16 90.4182 156.632C90.3462 156.104 90.3102 155.64 90.3102 155.24V148.04H92.8542V154.412C92.8542 154.916 92.8942 155.436 92.9742 155.972C93.0622 156.5 93.2222 156.992 93.4542 157.448C93.6942 157.904 94.0262 158.272 94.4502 158.552C94.8822 158.832 95.4422 158.972 96.1302 158.972C96.5782 158.972 97.0022 158.9 97.4022 158.756C97.8022 158.604 98.1502 158.364 98.4462 158.036C98.7502 157.708 98.9862 157.276 99.1542 156.74C99.3302 156.204 99.4182 155.552 99.4182 154.784L100.978 155.372C100.978 156.548 100.758 157.588 100.318 158.492C99.8782 159.388 99.2462 160.088 98.4222 160.592C97.5982 161.096 96.6022 161.348 95.4342 161.348ZM99.7182 161V157.256H99.4182V148.04H101.95V161H99.7182ZM109.552 161.348C107.976 161.348 106.692 161 105.7 160.304C104.708 159.608 104.1 158.628 103.876 157.364L106.444 156.968C106.604 157.64 106.972 158.172 107.548 158.564C108.132 158.948 108.856 159.14 109.72 159.14C110.504 159.14 111.116 158.98 111.556 158.66C112.004 158.34 112.228 157.9 112.228 157.34C112.228 157.012 112.148 156.748 111.988 156.548C111.836 156.34 111.512 156.144 111.016 155.96C110.52 155.776 109.764 155.548 108.748 155.276C107.636 154.988 106.752 154.68 106.096 154.352C105.448 154.016 104.984 153.628 104.704 153.188C104.432 152.74 104.296 152.2 104.296 151.568C104.296 150.784 104.504 150.1 104.92 149.516C105.336 148.932 105.92 148.48 106.672 148.16C107.432 147.84 108.32 147.68 109.336 147.68C110.328 147.68 111.212 147.836 111.988 148.148C112.764 148.46 113.392 148.904 113.872 149.48C114.352 150.048 114.64 150.716 114.736 151.484L112.168 151.952C112.08 151.328 111.788 150.836 111.292 150.476C110.796 150.116 110.152 149.92 109.36 149.888C108.6 149.856 107.984 149.984 107.512 150.272C107.04 150.552 106.804 150.94 106.804 151.436C106.804 151.724 106.892 151.968 107.068 152.168C107.252 152.368 107.604 152.56 108.124 152.744C108.644 152.928 109.412 153.148 110.428 153.404C111.516 153.684 112.38 153.996 113.02 154.34C113.66 154.676 114.116 155.08 114.388 155.552C114.668 156.016 114.808 156.58 114.808 157.244C114.808 158.524 114.34 159.528 113.404 160.256C112.476 160.984 111.192 161.348 109.552 161.348ZM124.159 161C123.343 161.16 122.543 161.228 121.759 161.204C120.975 161.18 120.275 161.028 119.659 160.748C119.043 160.468 118.579 160.028 118.267 159.428C117.987 158.892 117.835 158.348 117.811 157.796C117.795 157.236 117.787 156.604 117.787 155.9V144.44H120.307V155.78C120.307 156.3 120.311 156.752 120.319 157.136C120.335 157.52 120.419 157.844 120.571 158.108C120.859 158.604 121.315 158.888 121.939 158.96C122.571 159.024 123.311 158.996 124.159 158.876V161ZM115.303 150.056V148.04H124.159V150.056H115.303ZM131.213 161.36C129.917 161.36 128.793 161.068 127.841 160.484C126.889 159.9 126.153 159.096 125.633 158.072C125.121 157.04 124.865 155.852 124.865 154.508C124.865 153.156 125.129 151.968 125.657 150.944C126.185 149.912 126.925 149.112 127.877 148.544C128.829 147.968 129.941 147.68 131.213 147.68C132.509 147.68 133.633 147.972 134.585 148.556C135.537 149.14 136.273 149.944 136.793 150.968C137.313 151.992 137.573 153.172 137.573 154.508C137.573 155.86 137.309 157.052 136.781 158.084C136.261 159.108 135.525 159.912 134.573 160.496C133.621 161.072 132.501 161.36 131.213 161.36ZM131.213 158.996C132.453 158.996 133.377 158.58 133.985 157.748C134.601 156.908 134.909 155.828 134.909 154.508C134.909 153.156 134.597 152.076 133.973 151.268C133.357 150.452 132.437 150.044 131.213 150.044C130.373 150.044 129.681 150.236 129.137 150.62C128.593 150.996 128.189 151.52 127.925 152.192C127.661 152.856 127.529 153.628 127.529 154.508C127.529 155.868 127.841 156.956 128.465 157.772C129.089 158.588 130.005 158.996 131.213 158.996ZM155.018 161L155.03 152.924C155.03 151.988 154.79 151.26 154.31 150.74C153.83 150.212 153.198 149.948 152.414 149.948C151.934 149.948 151.494 150.06 151.094 150.284C150.702 150.5 150.382 150.828 150.134 151.268C149.894 151.7 149.774 152.244 149.774 152.9L148.562 152.288C148.546 151.376 148.738 150.576 149.138 149.888C149.546 149.2 150.098 148.668 150.794 148.292C151.49 147.908 152.27 147.716 153.134 147.716C154.534 147.716 155.618 148.136 156.386 148.976C157.154 149.816 157.538 150.932 157.538 152.324L157.526 161H155.018ZM139.478 161V148.04H141.71V151.784H141.998V161H139.478ZM147.254 161L147.266 152.972C147.266 152.028 147.026 151.288 146.546 150.752C146.074 150.216 145.438 149.948 144.638 149.948C143.846 149.948 143.206 150.22 142.718 150.764C142.238 151.308 141.998 152.02 141.998 152.9L140.798 152.132C140.798 151.284 141.002 150.528 141.41 149.864C141.818 149.2 142.37 148.676 143.066 148.292C143.762 147.908 144.55 147.716 145.43 147.716C146.35 147.716 147.134 147.912 147.782 148.304C148.43 148.688 148.922 149.228 149.258 149.924C149.602 150.62 149.774 151.428 149.774 152.348L149.762 161H147.254ZM170.283 161.36C169.043 161.36 167.923 161.148 166.923 160.724C165.931 160.292 165.111 159.68 164.463 158.888C163.823 158.088 163.407 157.14 163.215 156.044L165.831 155.648C166.095 156.704 166.647 157.528 167.487 158.12C168.327 158.704 169.307 158.996 170.427 158.996C171.123 158.996 171.763 158.888 172.347 158.672C172.931 158.448 173.399 158.132 173.751 157.724C174.111 157.308 174.291 156.812 174.291 156.236C174.291 155.924 174.235 155.648 174.123 155.408C174.019 155.168 173.871 154.96 173.679 154.784C173.495 154.6 173.267 154.444 172.995 154.316C172.731 154.18 172.439 154.064 172.119 153.968L167.691 152.66C167.259 152.532 166.819 152.368 166.371 152.168C165.923 151.96 165.511 151.692 165.135 151.364C164.767 151.028 164.467 150.616 164.235 150.128C164.003 149.632 163.887 149.032 163.887 148.328C163.887 147.264 164.159 146.364 164.703 145.628C165.255 144.884 165.999 144.324 166.935 143.948C167.871 143.564 168.919 143.372 170.079 143.372C171.247 143.388 172.291 143.596 173.211 143.996C174.139 144.396 174.907 144.972 175.515 145.724C176.131 146.468 176.555 147.372 176.787 148.436L174.099 148.892C173.979 148.244 173.723 147.688 173.331 147.224C172.939 146.752 172.459 146.392 171.891 146.144C171.323 145.888 170.707 145.756 170.043 145.748C169.403 145.732 168.815 145.828 168.279 146.036C167.751 146.244 167.327 146.536 167.007 146.912C166.695 147.288 166.539 147.72 166.539 148.208C166.539 148.688 166.679 149.076 166.959 149.372C167.239 149.668 167.583 149.904 167.991 150.08C168.407 150.248 168.819 150.388 169.227 150.5L172.419 151.4C172.819 151.512 173.271 151.664 173.775 151.856C174.287 152.04 174.779 152.3 175.251 152.636C175.731 152.972 176.127 153.42 176.439 153.98C176.751 154.532 176.907 155.228 176.907 156.068C176.907 156.94 176.731 157.708 176.379 158.372C176.027 159.028 175.543 159.58 174.927 160.028C174.319 160.468 173.615 160.8 172.815 161.024C172.015 161.248 171.171 161.36 170.283 161.36ZM184.493 161.36C183.205 161.36 182.073 161.08 181.097 160.52C180.129 159.952 179.373 159.164 178.829 158.156C178.293 157.14 178.025 155.964 178.025 154.628C178.025 153.212 178.289 151.984 178.817 150.944C179.353 149.904 180.097 149.1 181.049 148.532C182.001 147.964 183.109 147.68 184.373 147.68C185.693 147.68 186.817 147.988 187.745 148.604C188.673 149.212 189.365 150.08 189.821 151.208C190.285 152.336 190.469 153.676 190.373 155.228H187.865V154.316C187.849 152.812 187.561 151.7 187.001 150.98C186.449 150.26 185.605 149.9 184.469 149.9C183.213 149.9 182.269 150.296 181.637 151.088C181.005 151.88 180.689 153.024 180.689 154.52C180.689 155.944 181.005 157.048 181.637 157.832C182.269 158.608 183.181 158.996 184.373 158.996C185.157 158.996 185.833 158.82 186.401 158.468C186.977 158.108 187.425 157.596 187.745 156.932L190.205 157.712C189.701 158.872 188.937 159.772 187.913 160.412C186.889 161.044 185.749 161.36 184.493 161.36ZM179.873 155.228V153.272H189.125V155.228H179.873ZM192.345 161V148.04H194.577V151.184L194.265 150.776C194.425 150.36 194.633 149.98 194.889 149.636C195.145 149.284 195.441 148.996 195.777 148.772C196.105 148.532 196.469 148.348 196.869 148.22C197.277 148.084 197.693 148.004 198.117 147.98C198.541 147.948 198.949 147.968 199.341 148.04V150.392C198.917 150.28 198.445 150.248 197.925 150.296C197.413 150.344 196.941 150.508 196.509 150.788C196.101 151.052 195.777 151.372 195.537 151.748C195.305 152.124 195.137 152.544 195.033 153.008C194.929 153.464 194.877 153.948 194.877 154.46V161H192.345ZM204.41 161L199.706 148.04H202.238L205.682 157.856L209.126 148.04H211.658L206.954 161H204.41ZM213.34 145.916V143.48H215.848V145.916H213.34ZM213.34 161V148.04H215.848V161H213.34ZM224.276 161.36C222.948 161.36 221.82 161.064 220.892 160.472C219.964 159.88 219.252 159.068 218.756 158.036C218.268 157.004 218.02 155.832 218.012 154.52C218.02 153.184 218.276 152.004 218.78 150.98C219.284 149.948 220.004 149.14 220.94 148.556C221.876 147.972 223 147.68 224.312 147.68C225.728 147.68 226.936 148.032 227.936 148.736C228.944 149.44 229.608 150.404 229.928 151.628L227.432 152.348C227.184 151.62 226.776 151.056 226.208 150.656C225.648 150.248 225.004 150.044 224.276 150.044C223.452 150.044 222.776 150.24 222.248 150.632C221.72 151.016 221.328 151.544 221.072 152.216C220.816 152.888 220.684 153.656 220.676 154.52C220.684 155.856 220.988 156.936 221.588 157.76C222.196 158.584 223.092 158.996 224.276 158.996C225.084 158.996 225.736 158.812 226.232 158.444C226.736 158.068 227.12 157.532 227.384 156.836L229.928 157.436C229.504 158.7 228.804 159.672 227.828 160.352C226.852 161.024 225.668 161.36 224.276 161.36ZM237.049 161.36C235.761 161.36 234.629 161.08 233.653 160.52C232.685 159.952 231.929 159.164 231.385 158.156C230.849 157.14 230.581 155.964 230.581 154.628C230.581 153.212 230.845 151.984 231.373 150.944C231.909 149.904 232.653 149.1 233.605 148.532C234.557 147.964 235.665 147.68 236.929 147.68C238.249 147.68 239.373 147.988 240.301 148.604C241.229 149.212 241.921 150.08 242.377 151.208C242.841 152.336 243.025 153.676 242.929 155.228H240.421V154.316C240.405 152.812 240.117 151.7 239.557 150.98C239.005 150.26 238.161 149.9 237.025 149.9C235.769 149.9 234.825 150.296 234.193 151.088C233.561 151.88 233.245 153.024 233.245 154.52C233.245 155.944 233.561 157.048 234.193 157.832C234.825 158.608 235.737 158.996 236.929 158.996C237.713 158.996 238.389 158.82 238.957 158.468C239.533 158.108 239.981 157.596 240.301 156.932L242.761 157.712C242.257 158.872 241.493 159.772 240.469 160.412C239.445 161.044 238.305 161.36 237.049 161.36ZM232.429 155.228V153.272H241.681V155.228H232.429Z" fill="#1E1B1B"/>
<path d="M182.855 96.4463C182.782 95.7998 182.028 95.3134 181.376 95.3134C179.268 95.3134 177.398 94.0764 176.614 92.1619C175.813 90.2014 176.33 87.9154 177.9 86.475C178.394 86.0228 178.455 85.2656 178.04 84.7401C176.961 83.3702 175.735 82.1326 174.396 81.0602C173.873 80.64 173.103 80.6985 172.648 81.2016C171.278 82.7199 168.815 83.2841 166.912 82.4901C164.932 81.6572 163.683 79.6505 163.806 77.4967C163.846 76.8197 163.351 76.2315 162.676 76.1529C160.958 75.954 159.225 75.9482 157.502 76.1394C156.836 76.213 156.341 76.7873 156.363 77.4557C156.438 79.5885 155.174 81.5597 153.214 82.3628C151.334 83.1309 148.888 82.5709 147.52 81.066C147.068 80.5702 146.312 80.5093 145.784 80.9205C144.406 82.0021 143.153 83.2405 142.064 84.5992C141.639 85.1274 141.702 85.8929 142.201 86.3467C143.802 87.7967 144.318 90.1023 143.487 92.0857C142.693 93.9765 140.73 95.1946 138.483 95.1946C137.753 95.1711 137.234 95.6611 137.154 96.3244C136.952 98.0517 136.949 99.8127 137.144 101.554C137.217 102.203 137.993 102.686 138.652 102.686C140.655 102.635 142.578 103.874 143.385 105.837C144.189 107.797 143.671 110.082 142.099 111.525C141.607 111.977 141.544 112.732 141.959 113.257C143.027 114.619 144.254 115.857 145.597 116.939C146.124 117.363 146.891 117.304 147.348 116.8C148.724 115.278 151.186 114.715 153.081 115.511C155.067 116.341 156.316 118.348 156.194 120.502C156.154 121.179 156.65 121.769 157.322 121.846C158.201 121.949 159.085 122 159.972 122C160.813 122 161.655 121.954 162.497 121.86C163.164 121.786 163.657 121.212 163.635 120.543C163.558 118.411 164.824 116.44 166.782 115.638C168.675 114.865 171.11 115.431 172.478 116.934C172.933 117.428 173.685 117.489 174.214 117.079C175.59 116 176.841 114.762 177.935 113.4C178.36 112.873 178.299 112.106 177.798 111.652C176.197 110.203 175.678 107.896 176.509 105.915C177.291 104.049 179.181 102.797 181.214 102.797L181.499 102.804C182.159 102.858 182.765 102.35 182.845 101.676C183.048 99.9473 183.05 98.1884 182.855 96.4463ZM160 112.26C152.676 112.26 146.74 106.323 146.74 99C146.74 91.6769 152.676 85.7405 160 85.7405C167.323 85.7405 173.259 91.6769 173.259 99C173.259 101.486 172.574 103.811 171.384 105.799L165.578 99.9925C165.998 99.0014 166.22 97.927 166.22 96.8181C166.22 94.6468 165.374 92.6055 163.839 91.0703C162.303 89.5352 160.262 88.6897 158.091 88.6897C157.367 88.6897 156.646 88.786 155.948 88.976C155.642 89.0593 155.392 89.3112 155.311 89.6173C155.228 89.9304 155.322 90.2513 155.566 90.4962C155.566 90.4962 158.433 93.3847 159.392 94.3436C159.492 94.444 159.492 94.6838 159.478 94.7701L159.469 94.8332C159.372 95.8875 159.186 97.1531 159.032 97.6395C159.011 97.66 158.992 97.6773 158.971 97.6984C158.949 97.7205 158.929 97.7418 158.907 97.7636C158.414 97.9218 157.129 98.1104 156.058 98.2063L156.059 98.2005L156.01 98.2126C156.002 98.2136 155.986 98.2148 155.965 98.2148C155.849 98.2148 155.679 98.1824 155.524 98.0278C154.526 97.0296 151.772 94.2952 151.772 94.2952C151.525 94.049 151.271 93.9972 151.102 93.9972C150.709 93.9972 150.356 94.2817 150.245 94.6897C149.487 97.4953 150.291 100.513 152.343 102.566C153.879 104.101 155.92 104.947 158.091 104.947C159.2 104.947 160.275 104.725 161.266 104.304L167.135 110.174C165.074 111.492 162.627 112.26 160 112.26Z" fill="#1E1B1B"/>
</svg>
