<svg width="316" height="232" viewBox="0 0 316 232" fill="none" xmlns="http://www.w3.org/2000/svg">
<rect width="316" height="232" fill="white"/>
<path d="M86.0781 161V143.72H97.1181V146.084H88.5861V150.932H95.6781V153.296H88.5861V158.636H97.1181V161H86.0781ZM108.376 161V154.628C108.376 154.124 108.332 153.608 108.244 153.08C108.164 152.544 108.004 152.048 107.764 151.592C107.532 151.136 107.2 150.768 106.768 150.488C106.344 150.208 105.788 150.068 105.1 150.068C104.652 150.068 104.228 150.144 103.828 150.296C103.428 150.44 103.076 150.676 102.772 151.004C102.476 151.332 102.24 151.764 102.064 152.3C101.896 152.836 101.812 153.488 101.812 154.256L100.252 153.668C100.252 152.492 100.472 151.456 100.912 150.56C101.352 149.656 101.984 148.952 102.808 148.448C103.632 147.944 104.628 147.692 105.796 147.692C106.692 147.692 107.444 147.836 108.052 148.124C108.66 148.412 109.152 148.792 109.528 149.264C109.912 149.728 110.204 150.236 110.404 150.788C110.604 151.34 110.74 151.88 110.812 152.408C110.884 152.936 110.92 153.4 110.92 153.8V161H108.376ZM99.268 161V148.04H101.512V151.784H101.812V161H99.268ZM118.666 167.12C117.97 167.12 117.294 167.012 116.638 166.796C115.99 166.58 115.398 166.26 114.862 165.836C114.326 165.42 113.882 164.904 113.53 164.288L115.846 163.112C116.126 163.664 116.526 164.068 117.046 164.324C117.566 164.58 118.114 164.708 118.69 164.708C119.402 164.708 120.01 164.58 120.514 164.324C121.018 164.076 121.398 163.7 121.654 163.196C121.918 162.692 122.046 162.068 122.038 161.324V157.7H122.338V148.04H124.558V161.348C124.558 161.692 124.546 162.02 124.522 162.332C124.498 162.644 124.454 162.956 124.39 163.268C124.206 164.14 123.854 164.86 123.334 165.428C122.822 165.996 122.166 166.42 121.366 166.7C120.574 166.98 119.674 167.12 118.666 167.12ZM118.474 161.36C117.266 161.36 116.222 161.06 115.342 160.46C114.47 159.86 113.794 159.044 113.314 158.012C112.842 156.972 112.606 155.804 112.606 154.508C112.606 153.204 112.846 152.04 113.326 151.016C113.806 149.984 114.486 149.172 115.366 148.58C116.254 147.98 117.306 147.68 118.522 147.68C119.746 147.68 120.774 147.98 121.606 148.58C122.446 149.172 123.078 149.984 123.502 151.016C123.934 152.048 124.15 153.212 124.15 154.508C124.15 155.804 123.934 156.968 123.502 158C123.07 159.032 122.434 159.852 121.594 160.46C120.754 161.06 119.714 161.36 118.474 161.36ZM118.822 159.092C119.646 159.092 120.318 158.896 120.838 158.504C121.358 158.112 121.738 157.572 121.978 156.884C122.218 156.196 122.338 155.404 122.338 154.508C122.338 153.612 122.214 152.82 121.966 152.132C121.726 151.444 121.35 150.908 120.838 150.524C120.334 150.14 119.69 149.948 118.906 149.948C118.074 149.948 117.39 150.152 116.854 150.56C116.318 150.968 115.918 151.516 115.654 152.204C115.398 152.892 115.27 153.66 115.27 154.508C115.27 155.364 115.398 156.14 115.654 156.836C115.918 157.524 116.31 158.072 116.83 158.48C117.358 158.888 118.022 159.092 118.822 159.092ZM127.447 145.916V143.48H129.955V145.916H127.447ZM127.447 161V148.04H129.955V161H127.447ZM141.935 161V154.628C141.935 154.124 141.891 153.608 141.803 153.08C141.723 152.544 141.563 152.048 141.323 151.592C141.091 151.136 140.759 150.768 140.327 150.488C139.903 150.208 139.347 150.068 138.659 150.068C138.211 150.068 137.787 150.144 137.387 150.296C136.987 150.44 136.635 150.676 136.331 151.004C136.035 151.332 135.799 151.764 135.623 152.3C135.455 152.836 135.371 153.488 135.371 154.256L133.811 153.668C133.811 152.492 134.031 151.456 134.471 150.56C134.911 149.656 135.543 148.952 136.367 148.448C137.191 147.944 138.187 147.692 139.355 147.692C140.251 147.692 141.003 147.836 141.611 148.124C142.219 148.412 142.711 148.792 143.087 149.264C143.471 149.728 143.763 150.236 143.963 150.788C144.163 151.34 144.299 151.88 144.371 152.408C144.443 152.936 144.479 153.4 144.479 153.8V161H141.935ZM132.827 161V148.04H135.071V151.784H135.371V161H132.827ZM152.468 161.36C151.18 161.36 150.048 161.08 149.072 160.52C148.104 159.952 147.348 159.164 146.804 158.156C146.268 157.14 146 155.964 146 154.628C146 153.212 146.264 151.984 146.792 150.944C147.328 149.904 148.072 149.1 149.024 148.532C149.976 147.964 151.084 147.68 152.348 147.68C153.668 147.68 154.792 147.988 155.72 148.604C156.648 149.212 157.34 150.08 157.796 151.208C158.26 152.336 158.444 153.676 158.348 155.228H155.84V154.316C155.824 152.812 155.536 151.7 154.976 150.98C154.424 150.26 153.58 149.9 152.444 149.9C151.188 149.9 150.244 150.296 149.612 151.088C148.98 151.88 148.664 153.024 148.664 154.52C148.664 155.944 148.98 157.048 149.612 157.832C150.244 158.608 151.156 158.996 152.348 158.996C153.132 158.996 153.808 158.82 154.376 158.468C154.952 158.108 155.4 157.596 155.72 156.932L158.18 157.712C157.676 158.872 156.912 159.772 155.888 160.412C154.864 161.044 153.724 161.36 152.468 161.36ZM147.848 155.228V153.272H157.1V155.228H147.848ZM164.405 161V143.72H171.389C171.557 143.72 171.765 143.728 172.013 143.744C172.261 143.752 172.497 143.776 172.721 143.816C173.681 143.968 174.481 144.296 175.121 144.8C175.769 145.304 176.253 145.94 176.573 146.708C176.893 147.476 177.053 148.324 177.053 149.252C177.053 150.628 176.701 151.816 175.997 152.816C175.293 153.808 174.237 154.428 172.829 154.676L171.809 154.796H166.913V161H164.405ZM174.509 161L171.101 153.968L173.633 153.32L177.377 161H174.509ZM166.913 152.42H171.293C171.453 152.42 171.629 152.412 171.821 152.396C172.021 152.38 172.209 152.352 172.385 152.312C172.897 152.192 173.309 151.972 173.621 151.652C173.933 151.324 174.157 150.948 174.293 150.524C174.429 150.1 174.497 149.676 174.497 149.252C174.497 148.828 174.429 148.408 174.293 147.992C174.157 147.568 173.933 147.196 173.621 146.876C173.309 146.548 172.897 146.324 172.385 146.204C172.209 146.156 172.021 146.124 171.821 146.108C171.629 146.092 171.453 146.084 171.293 146.084H166.913V152.42ZM185.043 161.36C183.755 161.36 182.623 161.08 181.647 160.52C180.679 159.952 179.923 159.164 179.379 158.156C178.843 157.14 178.575 155.964 178.575 154.628C178.575 153.212 178.839 151.984 179.367 150.944C179.903 149.904 180.647 149.1 181.599 148.532C182.551 147.964 183.659 147.68 184.923 147.68C186.243 147.68 187.367 147.988 188.295 148.604C189.223 149.212 189.915 150.08 190.371 151.208C190.835 152.336 191.019 153.676 190.923 155.228H188.415V154.316C188.399 152.812 188.111 151.7 187.551 150.98C186.999 150.26 186.155 149.9 185.019 149.9C183.763 149.9 182.819 150.296 182.187 151.088C181.555 151.88 181.239 153.024 181.239 154.52C181.239 155.944 181.555 157.048 182.187 157.832C182.819 158.608 183.731 158.996 184.923 158.996C185.707 158.996 186.383 158.82 186.951 158.468C187.527 158.108 187.975 157.596 188.295 156.932L190.755 157.712C190.251 158.872 189.487 159.772 188.463 160.412C187.439 161.044 186.299 161.36 185.043 161.36ZM180.423 155.228V153.272H189.675V155.228H180.423ZM198.627 161.36C197.387 161.36 196.347 161.06 195.507 160.46C194.667 159.852 194.031 159.032 193.599 158C193.167 156.968 192.951 155.804 192.951 154.508C192.951 153.212 193.163 152.048 193.587 151.016C194.019 149.984 194.651 149.172 195.483 148.58C196.323 147.98 197.355 147.68 198.579 147.68C199.795 147.68 200.843 147.98 201.723 148.58C202.611 149.172 203.295 149.984 203.775 151.016C204.255 152.04 204.495 153.204 204.495 154.508C204.495 155.804 204.255 156.972 203.775 158.012C203.303 159.044 202.627 159.86 201.747 160.46C200.875 161.06 199.835 161.36 198.627 161.36ZM192.531 166.76V148.04H194.763V157.364H195.051V166.76H192.531ZM198.279 159.092C199.079 159.092 199.739 158.888 200.259 158.48C200.787 158.072 201.179 157.524 201.435 156.836C201.699 156.14 201.831 155.364 201.831 154.508C201.831 153.66 201.699 152.892 201.435 152.204C201.179 151.516 200.783 150.968 200.247 150.56C199.711 150.152 199.027 149.948 198.195 149.948C197.411 149.948 196.763 150.14 196.251 150.524C195.747 150.908 195.371 151.444 195.123 152.132C194.883 152.82 194.763 153.612 194.763 154.508C194.763 155.404 194.883 156.196 195.123 156.884C195.363 157.572 195.743 158.112 196.263 158.504C196.783 158.896 197.455 159.092 198.279 159.092ZM210.085 161.36C209.125 161.36 208.321 161.184 207.673 160.832C207.025 160.472 206.533 160 206.197 159.416C205.869 158.824 205.705 158.176 205.705 157.472C205.705 156.816 205.821 156.24 206.053 155.744C206.285 155.248 206.629 154.828 207.085 154.484C207.541 154.132 208.101 153.848 208.765 153.632C209.341 153.464 209.993 153.316 210.721 153.188C211.449 153.06 212.213 152.94 213.013 152.828C213.821 152.716 214.621 152.604 215.413 152.492L214.501 152.996C214.517 151.98 214.301 151.228 213.853 150.74C213.413 150.244 212.653 149.996 211.573 149.996C210.893 149.996 210.269 150.156 209.701 150.476C209.133 150.788 208.737 151.308 208.513 152.036L206.173 151.316C206.493 150.204 207.101 149.32 207.997 148.664C208.901 148.008 210.101 147.68 211.597 147.68C212.757 147.68 213.765 147.88 214.621 148.28C215.485 148.672 216.117 149.296 216.517 150.152C216.725 150.576 216.853 151.024 216.901 151.496C216.949 151.968 216.973 152.476 216.973 153.02V161H214.753V158.036L215.185 158.42C214.649 159.412 213.965 160.152 213.133 160.64C212.309 161.12 211.293 161.36 210.085 161.36ZM210.529 159.308C211.241 159.308 211.853 159.184 212.365 158.936C212.877 158.68 213.289 158.356 213.601 157.964C213.913 157.572 214.117 157.164 214.213 156.74C214.349 156.356 214.425 155.924 214.441 155.444C214.465 154.964 214.477 154.58 214.477 154.292L215.293 154.592C214.501 154.712 213.781 154.82 213.133 154.916C212.485 155.012 211.897 155.108 211.369 155.204C210.849 155.292 210.385 155.4 209.977 155.528C209.633 155.648 209.325 155.792 209.053 155.96C208.789 156.128 208.577 156.332 208.417 156.572C208.265 156.812 208.189 157.104 208.189 157.448C208.189 157.784 208.273 158.096 208.441 158.384C208.609 158.664 208.865 158.888 209.209 159.056C209.553 159.224 209.993 159.308 210.529 159.308ZM219.609 145.916V143.48H222.117V145.916H219.609ZM219.609 161V148.04H222.117V161H219.609ZM225.001 161V148.04H227.233V151.184L226.921 150.776C227.081 150.36 227.289 149.98 227.545 149.636C227.801 149.284 228.097 148.996 228.433 148.772C228.761 148.532 229.125 148.348 229.525 148.22C229.933 148.084 230.349 148.004 230.773 147.98C231.197 147.948 231.605 147.968 231.997 148.04V150.392C231.573 150.28 231.101 150.248 230.581 150.296C230.069 150.344 229.597 150.508 229.165 150.788C228.757 151.052 228.433 151.372 228.193 151.748C227.961 152.124 227.793 152.544 227.689 153.008C227.585 153.464 227.533 153.948 227.533 154.46V161H225.001Z" fill="#1E1B1B"/>
<path d="M171.977 80.1367C170.602 80.1367 169.423 79.2872 168.936 78.0859H166.07V75.625H168.936C169.423 74.4237 170.602 73.5742 171.977 73.5742C173.786 73.5742 175.258 75.0462 175.258 76.8555C175.258 78.6647 173.786 80.1367 171.977 80.1367Z" fill="#1E1B1B"/>
<path d="M177.719 87.1094C177.179 87.1094 176.671 86.9778 176.221 86.7462L173.174 89.2852C172.953 89.4694 172.675 89.5703 172.387 89.5703H166.07V87.1094H171.941L174.613 84.8832C174.5 84.5519 174.438 84.1973 174.438 83.8281C174.438 82.0188 175.909 80.5469 177.719 80.5469C179.528 80.5469 181 82.0188 181 83.8281C181 85.6374 179.528 87.1094 177.719 87.1094Z" fill="#1E1B1B"/>
<path d="M177.719 97.3633C176.344 97.3633 175.166 96.5138 174.678 95.3125H166.07V92.8516H174.678C175.166 91.6503 176.344 90.8008 177.719 90.8008C179.528 90.8008 181 92.2727 181 94.082C181 95.8913 179.528 97.3633 177.719 97.3633Z" fill="#1E1B1B"/>
<path d="M173.174 98.879L176.221 101.418C176.671 101.186 177.179 101.055 177.719 101.055C179.528 101.055 181 102.527 181 104.336C181 106.145 179.528 107.617 177.719 107.617C175.909 107.617 174.438 106.145 174.438 104.336C174.438 103.967 174.5 103.612 174.613 103.281L171.941 101.055H166.07V98.5938H172.387C172.675 98.5938 172.953 98.6946 173.174 98.879Z" fill="#1E1B1B"/>
<path d="M171.977 108.027C173.786 108.027 175.258 109.499 175.258 111.309C175.258 113.118 173.786 114.59 171.977 114.59C170.602 114.59 169.423 113.74 168.936 112.539H166.07V110.078H168.936C169.423 108.877 170.602 108.027 171.977 108.027Z" fill="#1E1B1B"/>
<path d="M151.305 94.082C151.305 89.3327 155.169 85.4688 159.918 85.4688C161.238 85.4688 162.49 85.7678 163.609 86.301V101.863C162.49 102.396 161.238 102.695 159.918 102.695C155.169 102.695 151.305 98.8314 151.305 94.082Z" fill="#1E1B1B"/>
<path d="M162.379 115H157.457C156.777 115 156.227 114.449 156.227 113.77V112.168C153.918 111.698 151.708 110.782 149.74 109.481L148.607 110.613C148.126 111.094 147.347 111.094 146.867 110.613L143.387 107.133C142.906 106.653 142.906 105.874 143.387 105.393L144.519 104.26C143.218 102.292 142.302 100.082 141.832 97.7734H140.23C139.551 97.7734 139 97.2225 139 96.543V91.6211C139 90.9415 139.551 90.3906 140.23 90.3906H141.832C142.302 88.0817 143.218 85.8721 144.519 83.9038L143.387 82.771C143.156 82.5402 143.026 82.2273 143.026 81.901C143.026 81.5746 143.156 81.2618 143.387 81.031L146.867 77.5507C147.347 77.0701 148.126 77.0701 148.607 77.5507L149.74 78.6835C151.708 77.3819 153.918 76.4666 156.227 75.9962V74.3945C156.227 73.715 156.777 73.1641 157.457 73.1641H162.379C163.058 73.1641 163.609 73.715 163.609 74.3945V83.6413C162.454 83.2316 161.212 83.0078 159.918 83.0078C153.812 83.0078 148.844 87.9757 148.844 94.082C148.844 100.188 153.812 105.156 159.918 105.156C161.212 105.156 162.454 104.932 163.609 104.523V113.77C163.609 114.449 163.058 115 162.379 115Z" fill="#1E1B1B"/>
</svg>
