<svg width="316" height="232" viewBox="0 0 316 232" fill="none" xmlns="http://www.w3.org/2000/svg">
<rect width="316" height="232" fill="white"/>
<path d="M109.888 161V143.72H116.68C117.776 143.72 118.696 143.944 119.44 144.392C120.184 144.84 120.744 145.42 121.12 146.132C121.496 146.836 121.684 147.58 121.684 148.364C121.684 149.316 121.448 150.132 120.976 150.812C120.512 151.492 119.884 151.956 119.092 152.204L119.068 151.616C120.172 151.888 121.02 152.42 121.612 153.212C122.204 153.996 122.5 154.912 122.5 155.96C122.5 156.976 122.296 157.86 121.888 158.612C121.488 159.364 120.9 159.952 120.124 160.376C119.356 160.792 118.424 161 117.328 161H109.888ZM112.432 158.612H116.944C117.512 158.612 118.02 158.504 118.468 158.288C118.924 158.072 119.28 157.764 119.536 157.364C119.8 156.956 119.932 156.472 119.932 155.912C119.932 155.392 119.816 154.924 119.584 154.508C119.36 154.084 119.032 153.752 118.6 153.512C118.176 153.264 117.676 153.14 117.1 153.14H112.432V158.612ZM112.432 150.776H116.644C117.108 150.776 117.524 150.684 117.892 150.5C118.268 150.308 118.564 150.036 118.78 149.684C119.004 149.324 119.116 148.892 119.116 148.388C119.116 147.716 118.892 147.164 118.444 146.732C117.996 146.3 117.396 146.084 116.644 146.084H112.432V150.776ZM127.828 161.36C126.868 161.36 126.064 161.184 125.416 160.832C124.768 160.472 124.276 160 123.94 159.416C123.612 158.824 123.448 158.176 123.448 157.472C123.448 156.816 123.564 156.24 123.796 155.744C124.028 155.248 124.372 154.828 124.828 154.484C125.284 154.132 125.844 153.848 126.508 153.632C127.084 153.464 127.736 153.316 128.464 153.188C129.192 153.06 129.956 152.94 130.756 152.828C131.564 152.716 132.364 152.604 133.156 152.492L132.244 152.996C132.26 151.98 132.044 151.228 131.596 150.74C131.156 150.244 130.396 149.996 129.316 149.996C128.636 149.996 128.012 150.156 127.444 150.476C126.876 150.788 126.48 151.308 126.256 152.036L123.916 151.316C124.236 150.204 124.844 149.32 125.74 148.664C126.644 148.008 127.844 147.68 129.34 147.68C130.5 147.68 131.508 147.88 132.364 148.28C133.228 148.672 133.86 149.296 134.26 150.152C134.468 150.576 134.596 151.024 134.644 151.496C134.692 151.968 134.716 152.476 134.716 153.02V161H132.496V158.036L132.928 158.42C132.392 159.412 131.708 160.152 130.876 160.64C130.052 161.12 129.036 161.36 127.828 161.36ZM128.272 159.308C128.984 159.308 129.596 159.184 130.108 158.936C130.62 158.68 131.032 158.356 131.344 157.964C131.656 157.572 131.86 157.164 131.956 156.74C132.092 156.356 132.168 155.924 132.184 155.444C132.208 154.964 132.22 154.58 132.22 154.292L133.036 154.592C132.244 154.712 131.524 154.82 130.876 154.916C130.228 155.012 129.64 155.108 129.112 155.204C128.592 155.292 128.128 155.4 127.72 155.528C127.376 155.648 127.068 155.792 126.796 155.96C126.532 156.128 126.32 156.332 126.16 156.572C126.008 156.812 125.932 157.104 125.932 157.448C125.932 157.784 126.016 158.096 126.184 158.384C126.352 158.664 126.608 158.888 126.952 159.056C127.296 159.224 127.736 159.308 128.272 159.308ZM144.528 161C143.712 161.16 142.912 161.228 142.128 161.204C141.344 161.18 140.644 161.028 140.028 160.748C139.412 160.468 138.948 160.028 138.636 159.428C138.356 158.892 138.204 158.348 138.18 157.796C138.164 157.236 138.156 156.604 138.156 155.9V144.44H140.676V155.78C140.676 156.3 140.68 156.752 140.688 157.136C140.704 157.52 140.788 157.844 140.94 158.108C141.228 158.604 141.684 158.888 142.308 158.96C142.94 159.024 143.68 158.996 144.528 158.876V161ZM135.672 150.056V148.04H144.528V150.056H135.672ZM153.228 161C152.412 161.16 151.612 161.228 150.828 161.204C150.044 161.18 149.344 161.028 148.728 160.748C148.112 160.468 147.648 160.028 147.336 159.428C147.056 158.892 146.904 158.348 146.88 157.796C146.864 157.236 146.856 156.604 146.856 155.9V144.44H149.376V155.78C149.376 156.3 149.38 156.752 149.388 157.136C149.404 157.52 149.488 157.844 149.64 158.108C149.928 158.604 150.384 158.888 151.008 158.96C151.64 159.024 152.38 158.996 153.228 158.876V161ZM144.372 150.056V148.04H153.228V150.056H144.372ZM160.96 161.36C159.672 161.36 158.54 161.08 157.564 160.52C156.596 159.952 155.84 159.164 155.296 158.156C154.76 157.14 154.492 155.964 154.492 154.628C154.492 153.212 154.756 151.984 155.284 150.944C155.82 149.904 156.564 149.1 157.516 148.532C158.468 147.964 159.576 147.68 160.84 147.68C162.16 147.68 163.284 147.988 164.212 148.604C165.14 149.212 165.832 150.08 166.288 151.208C166.752 152.336 166.936 153.676 166.84 155.228H164.332V154.316C164.316 152.812 164.028 151.7 163.468 150.98C162.916 150.26 162.072 149.9 160.936 149.9C159.68 149.9 158.736 150.296 158.104 151.088C157.472 151.88 157.156 153.024 157.156 154.52C157.156 155.944 157.472 157.048 158.104 157.832C158.736 158.608 159.648 158.996 160.84 158.996C161.624 158.996 162.3 158.82 162.868 158.468C163.444 158.108 163.892 157.596 164.212 156.932L166.672 157.712C166.168 158.872 165.404 159.772 164.38 160.412C163.356 161.044 162.216 161.36 160.96 161.36ZM156.34 155.228V153.272H165.592V155.228H156.34ZM168.812 161V148.04H171.044V151.184L170.732 150.776C170.892 150.36 171.1 149.98 171.356 149.636C171.612 149.284 171.908 148.996 172.244 148.772C172.572 148.532 172.936 148.348 173.336 148.22C173.744 148.084 174.16 148.004 174.584 147.98C175.008 147.948 175.416 147.968 175.808 148.04V150.392C175.384 150.28 174.912 150.248 174.392 150.296C173.88 150.344 173.408 150.508 172.976 150.788C172.568 151.052 172.244 151.372 172.004 151.748C171.772 152.124 171.604 152.544 171.5 153.008C171.396 153.464 171.344 153.948 171.344 154.46V161H168.812ZM177.613 145.916V143.48H180.121V145.916H177.613ZM177.613 161V148.04H180.121V161H177.613ZM188.753 161.36C187.465 161.36 186.333 161.08 185.357 160.52C184.389 159.952 183.633 159.164 183.089 158.156C182.553 157.14 182.285 155.964 182.285 154.628C182.285 153.212 182.549 151.984 183.077 150.944C183.613 149.904 184.357 149.1 185.309 148.532C186.261 147.964 187.369 147.68 188.633 147.68C189.953 147.68 191.077 147.988 192.005 148.604C192.933 149.212 193.625 150.08 194.081 151.208C194.545 152.336 194.729 153.676 194.633 155.228H192.125V154.316C192.109 152.812 191.821 151.7 191.261 150.98C190.709 150.26 189.865 149.9 188.729 149.9C187.473 149.9 186.529 150.296 185.897 151.088C185.265 151.88 184.949 153.024 184.949 154.52C184.949 155.944 185.265 157.048 185.897 157.832C186.529 158.608 187.441 158.996 188.633 158.996C189.417 158.996 190.093 158.82 190.661 158.468C191.237 158.108 191.685 157.596 192.005 156.932L194.465 157.712C193.961 158.872 193.197 159.772 192.173 160.412C191.149 161.044 190.009 161.36 188.753 161.36ZM184.133 155.228V153.272H193.385V155.228H184.133ZM201.561 161.348C199.985 161.348 198.701 161 197.709 160.304C196.717 159.608 196.109 158.628 195.885 157.364L198.453 156.968C198.613 157.64 198.981 158.172 199.557 158.564C200.141 158.948 200.865 159.14 201.729 159.14C202.513 159.14 203.125 158.98 203.565 158.66C204.013 158.34 204.237 157.9 204.237 157.34C204.237 157.012 204.157 156.748 203.997 156.548C203.845 156.34 203.521 156.144 203.025 155.96C202.529 155.776 201.773 155.548 200.757 155.276C199.645 154.988 198.761 154.68 198.105 154.352C197.457 154.016 196.993 153.628 196.713 153.188C196.441 152.74 196.305 152.2 196.305 151.568C196.305 150.784 196.513 150.1 196.929 149.516C197.345 148.932 197.929 148.48 198.681 148.16C199.441 147.84 200.329 147.68 201.345 147.68C202.337 147.68 203.221 147.836 203.997 148.148C204.773 148.46 205.401 148.904 205.881 149.48C206.361 150.048 206.649 150.716 206.745 151.484L204.177 151.952C204.089 151.328 203.797 150.836 203.301 150.476C202.805 150.116 202.161 149.92 201.369 149.888C200.609 149.856 199.993 149.984 199.521 150.272C199.049 150.552 198.813 150.94 198.813 151.436C198.813 151.724 198.901 151.968 199.077 152.168C199.261 152.368 199.613 152.56 200.133 152.744C200.653 152.928 201.421 153.148 202.437 153.404C203.525 153.684 204.389 153.996 205.029 154.34C205.669 154.676 206.125 155.08 206.397 155.552C206.677 156.016 206.817 156.58 206.817 157.244C206.817 158.524 206.349 159.528 205.413 160.256C204.485 160.984 203.201 161.348 201.561 161.348Z" fill="#1E1B1B"/>
<path d="M176.5 80.5832C176.5 79.5708 175.679 78.75 174.667 78.75H167.333C166.321 78.75 165.5 79.5708 165.5 80.5832V84.25H176.5V80.5832Z" fill="#1E1B1B"/>
<path d="M154.5 80.5832C154.5 79.5708 153.679 78.75 152.667 78.75H145.333C144.321 78.75 143.5 79.5708 143.5 80.5832V84.25H154.5V80.5832Z" fill="#1E1B1B"/>
<path d="M138 86.0833V113.583C138 114.596 138.821 115.417 139.833 115.417H143.5V117.25H147.167V115.417H172.833V117.25H176.5V115.417H180.167C181.179 115.417 182 114.596 182 113.583V86.0833H138ZM152.667 111.75L156.333 100.75H150.833L163.667 89.75L160 100.75H165.5L152.667 111.75Z" fill="#1E1B1B"/>
</svg>
